<?xml version="1.0" encoding="UTF-8"?>
<svg xmlns="http://www.w3.org/2000/svg"
  xmlns:xlink="http://www.w3.org/1999/xlink" width="128pt" height="128pt" viewBox="0 0 576 576" version="1.1">
  <defs>
    <clipPath id="clip1">
      <path d="M 185 40.828125 L 188 40.828125 L 188 256.089844 L 185 256.089844 Z M 185 40.828125 "/>
    </clipPath>
    <clipPath id="clip2">
      <path d="M 433 40.828125 L 435 40.828125 L 435 256.089844 L 433 256.089844 Z M 433 40.828125 "/>
    </clipPath>
  </defs>
  <g id="surface125">
    <rect x="0" y="0" width="128" height="128" style="fill:rgb(100%,100%,100%);fill-opacity:1;stroke:none;"/>
    <rect x="0" y="0" width="128" height="128" style="fill:rgb(100%,100%,100%);fill-opacity:1;stroke:none;"/>
    <path style="fill:none;stroke-width:1.066978;stroke-linecap:round;stroke-linejoin:round;stroke:rgb(100%,100%,100%);stroke-opacity:1;stroke-miterlimit:10;" d="M 0 128 L 128 128 L 128 0 L 0 0 Z M 0 128 "/>
    <path style="fill:none;stroke-width:1.066978;stroke-linecap:butt;stroke-linejoin:round;stroke:rgb(97.254902%,46.27451%,42.745098%);stroke-opacity:1;stroke-miterlimit:10;" d="M 186.472656 246.304688 L 433.390625 246.304688 "/>
    <path style="fill:none;stroke-width:1.066978;stroke-linecap:butt;stroke-linejoin:round;stroke:rgb(95.294118%,48.235294%,34.901961%);stroke-opacity:1;stroke-miterlimit:10;" d="M 186.472656 246.304688 L 433.390625 246.304688 "/>
    <path style="fill:none;stroke-width:1.066978;stroke-linecap:butt;stroke-linejoin:round;stroke:rgb(92.941176%,50.588235%,25.490196%);stroke-opacity:1;stroke-miterlimit:10;" d="M 186.472656 246.304688 L 433.390625 246.304688 "/>
    <path style="fill:none;stroke-width:1.066978;stroke-linecap:butt;stroke-linejoin:round;stroke:rgb(90.588235%,52.54902%,10.588235%);stroke-opacity:1;stroke-miterlimit:10;" d="M 186.472656 240.1875 L 186.78125 241.847656 L 187.089844 243.171875 L 187.398438 244.207031 L 187.710938 244.984375 L 188.019531 245.539062 L 188.328125 245.914062 L 188.636719 246.140625 L 188.945312 246.253906 L 189.253906 246.296875 L 189.5625 246.304688 L 433.390625 246.304688 "/>
    <path style="fill:none;stroke-width:1.066978;stroke-linecap:butt;stroke-linejoin:round;stroke:rgb(87.843137%,54.509804%,0%);stroke-opacity:1;stroke-miterlimit:10;" d="M 186.472656 105.648438 L 186.78125 114.988281 L 187.089844 124.582031 L 187.398438 134.324219 L 187.710938 144.105469 L 188.019531 153.808594 L 188.328125 163.332031 L 188.636719 172.558594 L 188.945312 181.382812 L 189.253906 189.695312 L 189.5625 197.382812 L 189.871094 204.359375 L 190.179688 210.640625 L 190.492188 216.257812 L 190.800781 221.253906 L 191.109375 225.664062 L 191.417969 229.523438 L 191.726562 232.867188 L 192.035156 235.738281 L 192.34375 238.164062 L 192.652344 240.1875 L 192.960938 241.847656 L 193.273438 243.171875 L 193.582031 244.207031 L 193.890625 244.984375 L 194.199219 245.539062 L 194.507812 245.914062 L 194.816406 246.140625 L 195.125 246.253906 L 195.433594 246.296875 L 195.742188 246.304688 L 433.390625 246.304688 "/>
    <path style="fill:none;stroke-width:1.066978;stroke-linecap:butt;stroke-linejoin:round;stroke:rgb(84.705882%,56.470588%,0%);stroke-opacity:1;stroke-miterlimit:10;" d="M 186.472656 105.648438 L 186.78125 96.679688 L 187.089844 88.183594 L 187.398438 80.277344 L 187.710938 73.066406 L 188.019531 66.664062 L 188.328125 61.179688 L 188.636719 56.71875 L 188.945312 53.398438 L 189.253906 51.328125 L 189.5625 50.609375 L 189.871094 51.328125 L 190.179688 53.398438 L 190.492188 56.71875 L 190.800781 61.179688 L 191.109375 66.664062 L 191.417969 73.066406 L 191.726562 80.277344 L 192.035156 88.183594 L 192.34375 96.679688 L 192.652344 105.648438 L 192.960938 114.988281 L 193.273438 124.582031 L 193.582031 134.324219 L 193.890625 144.105469 L 194.199219 153.808594 L 194.507812 163.332031 L 194.816406 172.558594 L 195.125 181.382812 L 195.433594 189.695312 L 195.742188 197.382812 L 196.054688 204.359375 L 196.363281 210.640625 L 196.671875 216.257812 L 196.980469 221.253906 L 197.289062 225.664062 L 197.597656 229.523438 L 197.90625 232.867188 L 198.214844 235.738281 L 198.527344 238.164062 L 198.835938 240.1875 L 199.144531 241.847656 L 199.453125 243.171875 L 199.761719 244.207031 L 200.070312 244.984375 L 200.378906 245.539062 L 200.6875 245.914062 L 200.996094 246.140625 L 201.308594 246.253906 L 201.617188 246.296875 L 201.925781 246.304688 L 433.390625 246.304688 "/>
    <path style="fill:none;stroke-width:1.066978;stroke-linecap:butt;stroke-linejoin:round;stroke:rgb(81.176471%,58.039216%,0%);stroke-opacity:1;stroke-miterlimit:10;" d="M 186.472656 240.1875 L 186.78125 238.164062 L 187.089844 235.738281 L 187.398438 232.867188 L 187.710938 229.523438 L 188.019531 225.664062 L 188.328125 221.253906 L 188.636719 216.257812 L 188.945312 210.640625 L 189.253906 204.359375 L 189.5625 197.382812 L 189.871094 189.695312 L 190.179688 181.382812 L 190.492188 172.558594 L 190.800781 163.332031 L 191.109375 153.808594 L 191.417969 144.105469 L 191.726562 134.324219 L 192.035156 124.582031 L 192.34375 114.988281 L 192.652344 105.648438 L 192.960938 96.679688 L 193.273438 88.183594 L 193.582031 80.277344 L 193.890625 73.066406 L 194.199219 66.664062 L 194.507812 61.179688 L 194.816406 56.71875 L 195.125 53.398438 L 195.433594 51.328125 L 195.742188 50.609375 L 196.054688 51.328125 L 196.363281 53.398438 L 196.671875 56.71875 L 196.980469 61.179688 L 197.289062 66.664062 L 197.597656 73.066406 L 197.90625 80.277344 L 198.214844 88.183594 L 198.527344 96.679688 L 198.835938 105.648438 L 199.144531 114.988281 L 199.453125 124.582031 L 199.761719 134.324219 L 200.070312 144.105469 L 200.378906 153.808594 L 200.6875 163.332031 L 200.996094 172.558594 L 201.308594 181.382812 L 201.617188 189.695312 L 201.925781 197.382812 L 202.234375 204.359375 L 202.542969 210.640625 L 202.851562 216.257812 L 203.160156 221.253906 L 203.46875 225.664062 L 203.777344 229.523438 L 204.089844 232.867188 L 204.398438 235.738281 L 204.707031 238.164062 L 205.015625 240.1875 L 205.324219 241.847656 L 205.632812 243.171875 L 205.941406 244.207031 L 206.25 244.984375 L 206.558594 245.539062 L 206.871094 245.914062 L 207.179688 246.140625 L 207.488281 246.253906 L 207.796875 246.296875 L 208.105469 246.304688 L 433.390625 246.304688 "/>
    <path style="fill:none;stroke-width:1.066978;stroke-linecap:butt;stroke-linejoin:round;stroke:rgb(77.254902%,60%,0%);stroke-opacity:1;stroke-miterlimit:10;" d="M 186.472656 246.304688 L 189.5625 246.304688 L 189.871094 246.296875 L 190.179688 246.253906 L 190.492188 246.140625 L 190.800781 245.914062 L 191.109375 245.539062 L 191.417969 244.984375 L 191.726562 244.207031 L 192.035156 243.171875 L 192.34375 241.847656 L 192.652344 240.1875 L 192.960938 238.164062 L 193.273438 235.738281 L 193.582031 232.867188 L 193.890625 229.523438 L 194.199219 225.664062 L 194.507812 221.253906 L 194.816406 216.257812 L 195.125 210.640625 L 195.433594 204.359375 L 195.742188 197.382812 L 196.054688 189.695312 L 196.363281 181.382812 L 196.671875 172.558594 L 196.980469 163.332031 L 197.289062 153.808594 L 197.597656 144.105469 L 197.90625 134.324219 L 198.214844 124.582031 L 198.527344 114.988281 L 198.835938 105.648438 L 199.144531 96.679688 L 199.453125 88.183594 L 199.761719 80.277344 L 200.070312 73.066406 L 200.378906 66.664062 L 200.6875 61.179688 L 200.996094 56.71875 L 201.308594 53.398438 L 201.617188 51.328125 L 201.925781 50.609375 L 202.234375 51.328125 L 202.542969 53.398438 L 202.851562 56.71875 L 203.160156 61.179688 L 203.46875 66.664062 L 203.777344 73.066406 L 204.089844 80.277344 L 204.398438 88.183594 L 204.707031 96.679688 L 205.015625 105.648438 L 205.324219 114.988281 L 205.632812 124.582031 L 205.941406 134.324219 L 206.25 144.105469 L 206.558594 153.808594 L 206.871094 163.332031 L 207.179688 172.558594 L 207.488281 181.382812 L 207.796875 189.695312 L 208.105469 197.382812 L 208.414062 204.359375 L 208.722656 210.640625 L 209.03125 216.257812 L 209.339844 221.253906 L 209.652344 225.664062 L 209.960938 229.523438 L 210.269531 232.867188 L 210.578125 235.738281 L 210.886719 238.164062 L 211.195312 240.1875 L 211.503906 241.847656 L 211.8125 243.171875 L 212.121094 244.207031 L 212.433594 244.984375 L 212.742188 245.539062 L 213.050781 245.914062 L 213.359375 246.140625 L 213.667969 246.253906 L 213.976562 246.296875 L 214.285156 246.304688 L 433.390625 246.304688 "/>
    <path style="fill:none;stroke-width:1.066978;stroke-linecap:butt;stroke-linejoin:round;stroke:rgb(73.333333%,61.568627%,0%);stroke-opacity:1;stroke-miterlimit:10;" d="M 186.472656 246.304688 L 195.742188 246.304688 L 196.054688 246.296875 L 196.363281 246.253906 L 196.671875 246.140625 L 196.980469 245.914062 L 197.289062 245.539062 L 197.597656 244.984375 L 197.90625 244.207031 L 198.214844 243.171875 L 198.527344 241.847656 L 198.835938 240.1875 L 199.144531 238.164062 L 199.453125 235.738281 L 199.761719 232.867188 L 200.070312 229.523438 L 200.378906 225.664062 L 200.6875 221.253906 L 200.996094 216.257812 L 201.308594 210.640625 L 201.617188 204.359375 L 201.925781 197.382812 L 202.234375 189.695312 L 202.542969 181.382812 L 202.851562 172.558594 L 203.160156 163.332031 L 203.46875 153.808594 L 203.777344 144.105469 L 204.089844 134.324219 L 204.398438 124.582031 L 204.707031 114.988281 L 205.015625 105.648438 L 205.324219 96.679688 L 205.632812 88.183594 L 205.941406 80.277344 L 206.25 73.066406 L 206.558594 66.664062 L 206.871094 61.179688 L 207.179688 56.71875 L 207.488281 53.398438 L 207.796875 51.328125 L 208.105469 50.609375 L 208.414062 51.328125 L 208.722656 53.398438 L 209.03125 56.71875 L 209.339844 61.179688 L 209.652344 66.664062 L 209.960938 73.066406 L 210.269531 80.277344 L 210.578125 88.183594 L 210.886719 96.679688 L 211.195312 105.648438 L 211.503906 114.988281 L 211.8125 124.582031 L 212.121094 134.324219 L 212.433594 144.105469 L 212.742188 153.808594 L 213.050781 163.332031 L 213.359375 172.558594 L 213.667969 181.382812 L 213.976562 189.695312 L 214.285156 197.382812 L 214.59375 204.359375 L 214.90625 210.640625 L 215.214844 216.257812 L 215.523438 221.253906 L 215.832031 225.664062 L 216.140625 229.523438 L 216.449219 232.867188 L 216.757812 235.738281 L 217.066406 238.164062 L 217.375 240.1875 L 217.6875 241.847656 L 217.996094 243.171875 L 218.304688 244.207031 L 218.613281 244.984375 L 218.921875 245.539062 L 219.230469 245.914062 L 219.539062 246.140625 L 219.847656 246.253906 L 220.15625 246.296875 L 220.46875 246.304688 L 433.390625 246.304688 "/>
    <path style="fill:none;stroke-width:1.066978;stroke-linecap:butt;stroke-linejoin:round;stroke:rgb(68.627451%,63.137255%,0%);stroke-opacity:1;stroke-miterlimit:10;" d="M 186.472656 246.304688 L 201.925781 246.304688 L 202.234375 246.296875 L 202.542969 246.253906 L 202.851562 246.140625 L 203.160156 245.914062 L 203.46875 245.539062 L 203.777344 244.984375 L 204.089844 244.207031 L 204.398438 243.171875 L 204.707031 241.847656 L 205.015625 240.1875 L 205.324219 238.164062 L 205.632812 235.738281 L 205.941406 232.867188 L 206.25 229.523438 L 206.558594 225.664062 L 206.871094 221.253906 L 207.179688 216.257812 L 207.488281 210.640625 L 207.796875 204.359375 L 208.105469 197.382812 L 208.414062 189.695312 L 208.722656 181.382812 L 209.03125 172.558594 L 209.339844 163.332031 L 209.652344 153.808594 L 209.960938 144.105469 L 210.269531 134.324219 L 210.578125 124.582031 L 210.886719 114.988281 L 211.195312 105.648438 L 211.503906 96.679688 L 211.8125 88.183594 L 212.121094 80.277344 L 212.433594 73.066406 L 212.742188 66.664062 L 213.050781 61.179688 L 213.359375 56.71875 L 213.667969 53.398438 L 213.976562 51.328125 L 214.285156 50.609375 L 214.59375 51.328125 L 214.90625 53.398438 L 215.214844 56.71875 L 215.523438 61.179688 L 215.832031 66.664062 L 216.140625 73.066406 L 216.449219 80.277344 L 216.757812 88.183594 L 217.066406 96.679688 L 217.375 105.648438 L 217.6875 114.988281 L 217.996094 124.582031 L 218.304688 134.324219 L 218.613281 144.105469 L 218.921875 153.808594 L 219.230469 163.332031 L 219.539062 172.558594 L 219.847656 181.382812 L 220.15625 189.695312 L 220.46875 197.382812 L 220.777344 204.359375 L 221.085938 210.640625 L 221.394531 216.257812 L 221.703125 221.253906 L 222.011719 225.664062 L 222.320312 229.523438 L 222.628906 232.867188 L 222.9375 235.738281 L 223.25 238.164062 L 223.558594 240.1875 L 223.867188 241.847656 L 224.175781 243.171875 L 224.484375 244.207031 L 224.792969 244.984375 L 225.101562 245.539062 L 225.410156 245.914062 L 225.71875 246.140625 L 226.03125 246.253906 L 226.339844 246.296875 L 226.648438 246.304688 L 433.390625 246.304688 "/>
    <path style="fill:none;stroke-width:1.066978;stroke-linecap:butt;stroke-linejoin:round;stroke:rgb(63.921569%,64.705882%,0%);stroke-opacity:1;stroke-miterlimit:10;" d="M 186.472656 246.304688 L 208.105469 246.304688 L 208.414062 246.296875 L 208.722656 246.253906 L 209.03125 246.140625 L 209.339844 245.914062 L 209.652344 245.539062 L 209.960938 244.984375 L 210.269531 244.207031 L 210.578125 243.171875 L 210.886719 241.847656 L 211.195312 240.1875 L 211.503906 238.164062 L 211.8125 235.738281 L 212.121094 232.867188 L 212.433594 229.523438 L 212.742188 225.664062 L 213.050781 221.253906 L 213.359375 216.257812 L 213.667969 210.640625 L 213.976562 204.359375 L 214.285156 197.382812 L 214.59375 189.695312 L 214.90625 181.382812 L 215.214844 172.558594 L 215.523438 163.332031 L 215.832031 153.808594 L 216.140625 144.105469 L 216.449219 134.324219 L 216.757812 124.582031 L 217.066406 114.988281 L 217.375 105.648438 L 217.6875 96.679688 L 217.996094 88.183594 L 218.304688 80.277344 L 218.613281 73.066406 L 218.921875 66.664062 L 219.230469 61.179688 L 219.539062 56.71875 L 219.847656 53.398438 L 220.15625 51.328125 L 220.46875 50.609375 L 220.777344 51.328125 L 221.085938 53.398438 L 221.394531 56.71875 L 221.703125 61.179688 L 222.011719 66.664062 L 222.320312 73.066406 L 222.628906 80.277344 L 222.9375 88.183594 L 223.25 96.679688 L 223.558594 105.648438 L 223.867188 114.988281 L 224.175781 124.582031 L 224.484375 134.324219 L 224.792969 144.105469 L 225.101562 153.808594 L 225.410156 163.332031 L 225.71875 172.558594 L 226.03125 181.382812 L 226.339844 189.695312 L 226.648438 197.382812 L 226.957031 204.359375 L 227.265625 210.640625 L 227.574219 216.257812 L 227.882812 221.253906 L 228.191406 225.664062 L 228.5 229.523438 L 228.8125 232.867188 L 229.121094 235.738281 L 229.429688 238.164062 L 229.738281 240.1875 L 230.046875 241.847656 L 230.355469 243.171875 L 230.664062 244.207031 L 230.972656 244.984375 L 231.28125 245.539062 L 231.59375 245.914062 L 231.902344 246.140625 L 232.210938 246.253906 L 232.519531 246.296875 L 232.828125 246.304688 L 433.390625 246.304688 "/>
    <path style="fill:none;stroke-width:1.066978;stroke-linecap:butt;stroke-linejoin:round;stroke:rgb(58.431373%,66.27451%,0%);stroke-opacity:1;stroke-miterlimit:10;" d="M 186.472656 246.304688 L 214.285156 246.304688 L 214.59375 246.296875 L 214.90625 246.253906 L 215.214844 246.140625 L 215.523438 245.914062 L 215.832031 245.539062 L 216.140625 244.984375 L 216.449219 244.207031 L 216.757812 243.171875 L 217.066406 241.847656 L 217.375 240.1875 L 217.6875 238.164062 L 217.996094 235.738281 L 218.304688 232.867188 L 218.613281 229.523438 L 218.921875 225.664062 L 219.230469 221.253906 L 219.539062 216.257812 L 219.847656 210.640625 L 220.15625 204.359375 L 220.46875 197.382812 L 220.777344 189.695312 L 221.085938 181.382812 L 221.394531 172.558594 L 221.703125 163.332031 L 222.011719 153.808594 L 222.320312 144.105469 L 222.628906 134.324219 L 222.9375 124.582031 L 223.25 114.988281 L 223.558594 105.648438 L 223.867188 96.679688 L 224.175781 88.183594 L 224.484375 80.277344 L 224.792969 73.066406 L 225.101562 66.664062 L 225.410156 61.179688 L 225.71875 56.71875 L 226.03125 53.398438 L 226.339844 51.328125 L 226.648438 50.609375 L 226.957031 51.328125 L 227.265625 53.398438 L 227.574219 56.71875 L 227.882812 61.179688 L 228.191406 66.664062 L 228.5 73.066406 L 228.8125 80.277344 L 229.121094 88.183594 L 229.429688 96.679688 L 229.738281 105.648438 L 230.046875 114.988281 L 230.355469 124.582031 L 230.664062 134.324219 L 230.972656 144.105469 L 231.28125 153.808594 L 231.59375 163.332031 L 231.902344 172.558594 L 232.210938 181.382812 L 232.519531 189.695312 L 232.828125 197.382812 L 233.136719 204.359375 L 233.445312 210.640625 L 233.753906 216.257812 L 234.066406 221.253906 L 234.375 225.664062 L 234.683594 229.523438 L 234.992188 232.867188 L 235.300781 235.738281 L 235.609375 238.164062 L 235.917969 240.1875 L 236.226562 241.847656 L 236.535156 243.171875 L 236.847656 244.207031 L 237.15625 244.984375 L 237.464844 245.539062 L 237.773438 245.914062 L 238.082031 246.140625 L 238.390625 246.253906 L 238.699219 246.296875 L 239.007812 246.304688 L 433.390625 246.304688 "/>
    <path style="fill:none;stroke-width:1.066978;stroke-linecap:butt;stroke-linejoin:round;stroke:rgb(52.156863%,67.843137%,0%);stroke-opacity:1;stroke-miterlimit:10;" d="M 186.472656 246.304688 L 220.46875 246.304688 L 220.777344 246.296875 L 221.085938 246.253906 L 221.394531 246.140625 L 221.703125 245.914062 L 222.011719 245.539062 L 222.320312 244.984375 L 222.628906 244.207031 L 222.9375 243.171875 L 223.25 241.847656 L 223.558594 240.1875 L 223.867188 238.164062 L 224.175781 235.738281 L 224.484375 232.867188 L 224.792969 229.523438 L 225.101562 225.664062 L 225.410156 221.253906 L 225.71875 216.257812 L 226.03125 210.640625 L 226.339844 204.359375 L 226.648438 197.382812 L 226.957031 189.695312 L 227.265625 181.382812 L 227.574219 172.558594 L 227.882812 163.332031 L 228.191406 153.808594 L 228.5 144.105469 L 228.8125 134.324219 L 229.121094 124.582031 L 229.429688 114.988281 L 229.738281 105.648438 L 230.046875 96.679688 L 230.355469 88.183594 L 230.664062 80.277344 L 230.972656 73.066406 L 231.28125 66.664062 L 231.59375 61.179688 L 231.902344 56.71875 L 232.210938 53.398438 L 232.519531 51.328125 L 232.828125 50.609375 L 233.136719 51.328125 L 233.445312 53.398438 L 233.753906 56.71875 L 234.066406 61.179688 L 234.375 66.664062 L 234.683594 73.066406 L 234.992188 80.277344 L 235.300781 88.183594 L 235.609375 96.679688 L 235.917969 105.648438 L 236.226562 114.988281 L 236.535156 124.582031 L 236.847656 134.324219 L 237.15625 144.105469 L 237.464844 153.808594 L 237.773438 163.332031 L 238.082031 172.558594 L 238.390625 181.382812 L 238.699219 189.695312 L 239.007812 197.382812 L 239.316406 204.359375 L 239.628906 210.640625 L 239.9375 216.257812 L 240.246094 221.253906 L 240.554688 225.664062 L 240.863281 229.523438 L 241.171875 232.867188 L 241.480469 235.738281 L 241.789062 238.164062 L 242.097656 240.1875 L 242.410156 241.847656 L 242.71875 243.171875 L 243.027344 244.207031 L 243.335938 244.984375 L 243.644531 245.539062 L 243.953125 245.914062 L 244.261719 246.140625 L 244.570312 246.253906 L 244.878906 246.296875 L 245.191406 246.304688 L 433.390625 246.304688 "/>
    <path style="fill:none;stroke-width:1.066978;stroke-linecap:butt;stroke-linejoin:round;stroke:rgb(44.705882%,69.019608%,0%);stroke-opacity:1;stroke-miterlimit:10;" d="M 186.472656 246.304688 L 226.648438 246.304688 L 226.957031 246.296875 L 227.265625 246.253906 L 227.574219 246.140625 L 227.882812 245.914062 L 228.191406 245.539062 L 228.5 244.984375 L 228.8125 244.207031 L 229.121094 243.171875 L 229.429688 241.847656 L 229.738281 240.1875 L 230.046875 238.164062 L 230.355469 235.738281 L 230.664062 232.867188 L 230.972656 229.523438 L 231.28125 225.664062 L 231.59375 221.253906 L 231.902344 216.257812 L 232.210938 210.640625 L 232.519531 204.359375 L 232.828125 197.382812 L 233.136719 189.695312 L 233.445312 181.382812 L 233.753906 172.558594 L 234.066406 163.332031 L 234.375 153.808594 L 234.683594 144.105469 L 234.992188 134.324219 L 235.300781 124.582031 L 235.609375 114.988281 L 235.917969 105.648438 L 236.226562 96.679688 L 236.535156 88.183594 L 236.847656 80.277344 L 237.15625 73.066406 L 237.464844 66.664062 L 237.773438 61.179688 L 238.082031 56.71875 L 238.390625 53.398438 L 238.699219 51.328125 L 239.007812 50.609375 L 239.316406 51.328125 L 239.628906 53.398438 L 239.9375 56.71875 L 240.246094 61.179688 L 240.554688 66.664062 L 240.863281 73.066406 L 241.171875 80.277344 L 241.480469 88.183594 L 241.789062 96.679688 L 242.097656 105.648438 L 242.410156 114.988281 L 242.71875 124.582031 L 243.027344 134.324219 L 243.335938 144.105469 L 243.644531 153.808594 L 243.953125 163.332031 L 244.261719 172.558594 L 244.570312 181.382812 L 244.878906 189.695312 L 245.191406 197.382812 L 245.5 204.359375 L 245.808594 210.640625 L 246.117188 216.257812 L 246.425781 221.253906 L 246.734375 225.664062 L 247.042969 229.523438 L 247.351562 232.867188 L 247.660156 235.738281 L 247.972656 238.164062 L 248.28125 240.1875 L 248.589844 241.847656 L 248.898438 243.171875 L 249.207031 244.207031 L 249.515625 244.984375 L 249.824219 245.539062 L 250.132812 245.914062 L 250.441406 246.140625 L 250.753906 246.253906 L 251.0625 246.296875 L 251.371094 246.304688 L 433.390625 246.304688 "/>
    <path style="fill:none;stroke-width:1.066978;stroke-linecap:butt;stroke-linejoin:round;stroke:rgb(35.686275%,70.196078%,0%);stroke-opacity:1;stroke-miterlimit:10;" d="M 186.472656 246.304688 L 232.828125 246.304688 L 233.136719 246.296875 L 233.445312 246.253906 L 233.753906 246.140625 L 234.066406 245.914062 L 234.375 245.539062 L 234.683594 244.984375 L 234.992188 244.207031 L 235.300781 243.171875 L 235.609375 241.847656 L 235.917969 240.1875 L 236.226562 238.164062 L 236.535156 235.738281 L 236.847656 232.867188 L 237.15625 229.523438 L 237.464844 225.664062 L 237.773438 221.253906 L 238.082031 216.257812 L 238.390625 210.640625 L 238.699219 204.359375 L 239.007812 197.382812 L 239.316406 189.695312 L 239.628906 181.382812 L 239.9375 172.558594 L 240.246094 163.332031 L 240.554688 153.808594 L 240.863281 144.105469 L 241.171875 134.324219 L 241.480469 124.582031 L 241.789062 114.988281 L 242.097656 105.648438 L 242.410156 96.679688 L 242.71875 88.183594 L 243.027344 80.277344 L 243.335938 73.066406 L 243.644531 66.664062 L 243.953125 61.179688 L 244.261719 56.71875 L 244.570312 53.398438 L 244.878906 51.328125 L 245.191406 50.609375 L 245.5 51.328125 L 245.808594 53.398438 L 246.117188 56.71875 L 246.425781 61.179688 L 246.734375 66.664062 L 247.042969 73.066406 L 247.351562 80.277344 L 247.660156 88.183594 L 247.972656 96.679688 L 248.28125 105.648438 L 248.589844 114.988281 L 248.898438 124.582031 L 249.207031 134.324219 L 249.515625 144.105469 L 249.824219 153.808594 L 250.132812 163.332031 L 250.441406 172.558594 L 250.753906 181.382812 L 251.0625 189.695312 L 251.371094 197.382812 L 251.679688 204.359375 L 251.988281 210.640625 L 252.296875 216.257812 L 252.605469 221.253906 L 252.914062 225.664062 L 253.226562 229.523438 L 253.535156 232.867188 L 253.84375 235.738281 L 254.152344 238.164062 L 254.460938 240.1875 L 254.769531 241.847656 L 255.078125 243.171875 L 255.386719 244.207031 L 255.695312 244.984375 L 256.007812 245.539062 L 256.316406 245.914062 L 256.625 246.140625 L 256.933594 246.253906 L 257.242188 246.296875 L 257.550781 246.304688 L 433.390625 246.304688 "/>
    <path style="fill:none;stroke-width:1.066978;stroke-linecap:butt;stroke-linejoin:round;stroke:rgb(22.352941%,71.372549%,0%);stroke-opacity:1;stroke-miterlimit:10;" d="M 186.472656 246.304688 L 239.007812 246.304688 L 239.316406 246.296875 L 239.628906 246.253906 L 239.9375 246.140625 L 240.246094 245.914062 L 240.554688 245.539062 L 240.863281 244.984375 L 241.171875 244.207031 L 241.480469 243.171875 L 241.789062 241.847656 L 242.097656 240.1875 L 242.410156 238.164062 L 242.71875 235.738281 L 243.027344 232.867188 L 243.335938 229.523438 L 243.644531 225.664062 L 243.953125 221.253906 L 244.261719 216.257812 L 244.570312 210.640625 L 244.878906 204.359375 L 245.191406 197.382812 L 245.5 189.695312 L 245.808594 181.382812 L 246.117188 172.558594 L 246.425781 163.332031 L 246.734375 153.808594 L 247.042969 144.105469 L 247.351562 134.324219 L 247.660156 124.582031 L 247.972656 114.988281 L 248.28125 105.648438 L 248.589844 96.679688 L 248.898438 88.183594 L 249.207031 80.277344 L 249.515625 73.066406 L 249.824219 66.664062 L 250.132812 61.179688 L 250.441406 56.71875 L 250.753906 53.398438 L 251.0625 51.328125 L 251.371094 50.609375 L 251.679688 51.328125 L 251.988281 53.398438 L 252.296875 56.71875 L 252.605469 61.179688 L 252.914062 66.664062 L 253.226562 73.066406 L 253.535156 80.277344 L 253.84375 88.183594 L 254.152344 96.679688 L 254.460938 105.648438 L 254.769531 114.988281 L 255.078125 124.582031 L 255.386719 134.324219 L 255.695312 144.105469 L 256.007812 153.808594 L 256.316406 163.332031 L 256.625 172.558594 L 256.933594 181.382812 L 257.242188 189.695312 L 257.550781 197.382812 L 257.859375 204.359375 L 258.167969 210.640625 L 258.476562 216.257812 L 258.789062 221.253906 L 259.097656 225.664062 L 259.40625 229.523438 L 259.714844 232.867188 L 260.023438 235.738281 L 260.332031 238.164062 L 260.640625 240.1875 L 260.949219 241.847656 L 261.257812 243.171875 L 261.570312 244.207031 L 261.878906 244.984375 L 262.1875 245.539062 L 262.496094 245.914062 L 262.804688 246.140625 L 263.113281 246.253906 L 263.421875 246.296875 L 263.730469 246.304688 L 433.390625 246.304688 "/>
    <path style="fill:none;stroke-width:1.066978;stroke-linecap:butt;stroke-linejoin:round;stroke:rgb(0%,72.156863%,12.156863%);stroke-opacity:1;stroke-miterlimit:10;" d="M 186.472656 246.304688 L 245.191406 246.304688 L 245.5 246.296875 L 245.808594 246.253906 L 246.117188 246.140625 L 246.425781 245.914062 L 246.734375 245.539062 L 247.042969 244.984375 L 247.351562 244.207031 L 247.660156 243.171875 L 247.972656 241.847656 L 248.28125 240.1875 L 248.589844 238.164062 L 248.898438 235.738281 L 249.207031 232.867188 L 249.515625 229.523438 L 249.824219 225.664062 L 250.132812 221.253906 L 250.441406 216.257812 L 250.753906 210.640625 L 251.0625 204.359375 L 251.371094 197.382812 L 251.679688 189.695312 L 251.988281 181.382812 L 252.296875 172.558594 L 252.605469 163.332031 L 252.914062 153.808594 L 253.226562 144.105469 L 253.535156 134.324219 L 253.84375 124.582031 L 254.152344 114.988281 L 254.460938 105.648438 L 254.769531 96.679688 L 255.078125 88.183594 L 255.386719 80.277344 L 255.695312 73.066406 L 256.007812 66.664062 L 256.316406 61.179688 L 256.625 56.71875 L 256.933594 53.398438 L 257.242188 51.328125 L 257.550781 50.609375 L 257.859375 51.328125 L 258.167969 53.398438 L 258.476562 56.71875 L 258.789062 61.179688 L 259.097656 66.664062 L 259.40625 73.066406 L 259.714844 80.277344 L 260.023438 88.183594 L 260.332031 96.679688 L 260.640625 105.648438 L 260.949219 114.988281 L 261.257812 124.582031 L 261.570312 134.324219 L 261.878906 144.105469 L 262.1875 153.808594 L 262.496094 163.332031 L 262.804688 172.558594 L 263.113281 181.382812 L 263.421875 189.695312 L 263.730469 197.382812 L 264.039062 204.359375 L 264.351562 210.640625 L 264.660156 216.257812 L 264.96875 221.253906 L 265.277344 225.664062 L 265.585938 229.523438 L 265.894531 232.867188 L 266.203125 235.738281 L 266.511719 238.164062 L 266.820312 240.1875 L 267.132812 241.847656 L 267.441406 243.171875 L 267.75 244.207031 L 268.058594 244.984375 L 268.367188 245.539062 L 268.675781 245.914062 L 268.984375 246.140625 L 269.292969 246.253906 L 269.601562 246.296875 L 269.914062 246.304688 L 433.390625 246.304688 "/>
    <path style="fill:none;stroke-width:1.066978;stroke-linecap:butt;stroke-linejoin:round;stroke:rgb(0%,72.941176%,25.882353%);stroke-opacity:1;stroke-miterlimit:10;" d="M 186.472656 246.304688 L 251.371094 246.304688 L 251.679688 246.296875 L 251.988281 246.253906 L 252.296875 246.140625 L 252.605469 245.914062 L 252.914062 245.539062 L 253.226562 244.984375 L 253.535156 244.207031 L 253.84375 243.171875 L 254.152344 241.847656 L 254.460938 240.1875 L 254.769531 238.164062 L 255.078125 235.738281 L 255.386719 232.867188 L 255.695312 229.523438 L 256.007812 225.664062 L 256.316406 221.253906 L 256.625 216.257812 L 256.933594 210.640625 L 257.242188 204.359375 L 257.550781 197.382812 L 257.859375 189.695312 L 258.167969 181.382812 L 258.476562 172.558594 L 258.789062 163.332031 L 259.097656 153.808594 L 259.40625 144.105469 L 259.714844 134.324219 L 260.023438 124.582031 L 260.332031 114.988281 L 260.640625 105.648438 L 260.949219 96.679688 L 261.257812 88.183594 L 261.570312 80.277344 L 261.878906 73.066406 L 262.1875 66.664062 L 262.496094 61.179688 L 262.804688 56.71875 L 263.113281 53.398438 L 263.421875 51.328125 L 263.730469 50.609375 L 264.039062 51.328125 L 264.351562 53.398438 L 264.660156 56.71875 L 264.96875 61.179688 L 265.277344 66.664062 L 265.585938 73.066406 L 265.894531 80.277344 L 266.203125 88.183594 L 266.511719 96.679688 L 266.820312 105.648438 L 267.132812 114.988281 L 267.441406 124.582031 L 267.75 134.324219 L 268.058594 144.105469 L 268.367188 153.808594 L 268.675781 163.332031 L 268.984375 172.558594 L 269.292969 181.382812 L 269.601562 189.695312 L 269.914062 197.382812 L 270.222656 204.359375 L 270.53125 210.640625 L 270.839844 216.257812 L 271.148438 221.253906 L 271.457031 225.664062 L 271.765625 229.523438 L 272.074219 232.867188 L 272.386719 235.738281 L 272.695312 238.164062 L 273.003906 240.1875 L 273.3125 241.847656 L 273.621094 243.171875 L 273.929688 244.207031 L 274.238281 244.984375 L 274.546875 245.539062 L 274.855469 245.914062 L 275.167969 246.140625 L 275.476562 246.253906 L 275.785156 246.296875 L 276.09375 246.304688 L 433.390625 246.304688 "/>
    <path style="fill:none;stroke-width:1.066978;stroke-linecap:butt;stroke-linejoin:round;stroke:rgb(0%,73.72549%,34.901961%);stroke-opacity:1;stroke-miterlimit:10;" d="M 186.472656 246.304688 L 257.550781 246.304688 L 257.859375 246.296875 L 258.167969 246.253906 L 258.476562 246.140625 L 258.789062 245.914062 L 259.097656 245.539062 L 259.40625 244.984375 L 259.714844 244.207031 L 260.023438 243.171875 L 260.332031 241.847656 L 260.640625 240.1875 L 260.949219 238.164062 L 261.257812 235.738281 L 261.570312 232.867188 L 261.878906 229.523438 L 262.1875 225.664062 L 262.496094 221.253906 L 262.804688 216.257812 L 263.113281 210.640625 L 263.421875 204.359375 L 263.730469 197.382812 L 264.039062 189.695312 L 264.351562 181.382812 L 264.660156 172.558594 L 264.96875 163.332031 L 265.277344 153.808594 L 265.585938 144.105469 L 265.894531 134.324219 L 266.203125 124.582031 L 266.511719 114.988281 L 266.820312 105.648438 L 267.132812 96.679688 L 267.441406 88.183594 L 267.75 80.277344 L 268.058594 73.066406 L 268.367188 66.664062 L 268.675781 61.179688 L 268.984375 56.71875 L 269.292969 53.398438 L 269.601562 51.328125 L 269.914062 50.609375 L 270.222656 51.328125 L 270.53125 53.398438 L 270.839844 56.71875 L 271.148438 61.179688 L 271.457031 66.664062 L 271.765625 73.066406 L 272.074219 80.277344 L 272.386719 88.183594 L 272.695312 96.679688 L 273.003906 105.648438 L 273.3125 114.988281 L 273.621094 124.582031 L 273.929688 134.324219 L 274.238281 144.105469 L 274.546875 153.808594 L 274.855469 163.332031 L 275.167969 172.558594 L 275.476562 181.382812 L 275.785156 189.695312 L 276.09375 197.382812 L 276.402344 204.359375 L 276.710938 210.640625 L 277.019531 216.257812 L 277.328125 221.253906 L 277.636719 225.664062 L 277.949219 229.523438 L 278.257812 232.867188 L 278.566406 235.738281 L 278.875 238.164062 L 279.183594 240.1875 L 279.492188 241.847656 L 279.800781 243.171875 L 280.109375 244.207031 L 280.417969 244.984375 L 280.730469 245.539062 L 281.039062 245.914062 L 281.347656 246.140625 L 281.65625 246.253906 L 281.964844 246.296875 L 282.273438 246.304688 L 433.390625 246.304688 "/>
    <path style="fill:none;stroke-width:1.066978;stroke-linecap:butt;stroke-linejoin:round;stroke:rgb(0%,74.509804%,42.352941%);stroke-opacity:1;stroke-miterlimit:10;" d="M 186.472656 246.304688 L 263.730469 246.304688 L 264.039062 246.296875 L 264.351562 246.253906 L 264.660156 246.140625 L 264.96875 245.914062 L 265.277344 245.539062 L 265.585938 244.984375 L 265.894531 244.207031 L 266.203125 243.171875 L 266.511719 241.847656 L 266.820312 240.1875 L 267.132812 238.164062 L 267.441406 235.738281 L 267.75 232.867188 L 268.058594 229.523438 L 268.367188 225.664062 L 268.675781 221.253906 L 268.984375 216.257812 L 269.292969 210.640625 L 269.601562 204.359375 L 269.914062 197.382812 L 270.222656 189.695312 L 270.53125 181.382812 L 270.839844 172.558594 L 271.148438 163.332031 L 271.457031 153.808594 L 271.765625 144.105469 L 272.074219 134.324219 L 272.386719 124.582031 L 272.695312 114.988281 L 273.003906 105.648438 L 273.3125 96.679688 L 273.621094 88.183594 L 273.929688 80.277344 L 274.238281 73.066406 L 274.546875 66.664062 L 274.855469 61.179688 L 275.167969 56.71875 L 275.476562 53.398438 L 275.785156 51.328125 L 276.09375 50.609375 L 276.402344 51.328125 L 276.710938 53.398438 L 277.019531 56.71875 L 277.328125 61.179688 L 277.636719 66.664062 L 277.949219 73.066406 L 278.257812 80.277344 L 278.566406 88.183594 L 278.875 96.679688 L 279.183594 105.648438 L 279.492188 114.988281 L 279.800781 124.582031 L 280.109375 134.324219 L 280.417969 144.105469 L 280.730469 153.808594 L 281.039062 163.332031 L 281.347656 172.558594 L 281.65625 181.382812 L 281.964844 189.695312 L 282.273438 197.382812 L 282.582031 204.359375 L 282.890625 210.640625 L 283.199219 216.257812 L 283.511719 221.253906 L 283.820312 225.664062 L 284.128906 229.523438 L 284.4375 232.867188 L 284.746094 235.738281 L 285.054688 238.164062 L 285.363281 240.1875 L 285.671875 241.847656 L 285.980469 243.171875 L 286.292969 244.207031 L 286.601562 244.984375 L 286.910156 245.539062 L 287.21875 245.914062 L 287.527344 246.140625 L 287.835938 246.253906 L 288.144531 246.296875 L 288.453125 246.304688 L 433.390625 246.304688 "/>
    <path style="fill:none;stroke-width:1.066978;stroke-linecap:butt;stroke-linejoin:round;stroke:rgb(0%,74.901961%,49.019608%);stroke-opacity:1;stroke-miterlimit:10;" d="M 186.472656 246.304688 L 269.914062 246.304688 L 270.222656 246.296875 L 270.53125 246.253906 L 270.839844 246.140625 L 271.148438 245.914062 L 271.457031 245.539062 L 271.765625 244.984375 L 272.074219 244.207031 L 272.386719 243.171875 L 272.695312 241.847656 L 273.003906 240.1875 L 273.3125 238.164062 L 273.621094 235.738281 L 273.929688 232.867188 L 274.238281 229.523438 L 274.546875 225.664062 L 274.855469 221.253906 L 275.167969 216.257812 L 275.476562 210.640625 L 275.785156 204.359375 L 276.09375 197.382812 L 276.402344 189.695312 L 276.710938 181.382812 L 277.019531 172.558594 L 277.328125 163.332031 L 277.636719 153.808594 L 277.949219 144.105469 L 278.257812 134.324219 L 278.566406 124.582031 L 278.875 114.988281 L 279.183594 105.648438 L 279.492188 96.679688 L 279.800781 88.183594 L 280.109375 80.277344 L 280.417969 73.066406 L 280.730469 66.664062 L 281.039062 61.179688 L 281.347656 56.71875 L 281.65625 53.398438 L 281.964844 51.328125 L 282.273438 50.609375 L 282.582031 51.328125 L 282.890625 53.398438 L 283.199219 56.71875 L 283.511719 61.179688 L 283.820312 66.664062 L 284.128906 73.066406 L 284.4375 80.277344 L 284.746094 88.183594 L 285.054688 96.679688 L 285.363281 105.648438 L 285.671875 114.988281 L 285.980469 124.582031 L 286.292969 134.324219 L 286.601562 144.105469 L 286.910156 153.808594 L 287.21875 163.332031 L 287.527344 172.558594 L 287.835938 181.382812 L 288.144531 189.695312 L 288.453125 197.382812 L 288.765625 204.359375 L 289.074219 210.640625 L 289.382812 216.257812 L 289.691406 221.253906 L 290 225.664062 L 290.308594 229.523438 L 290.617188 232.867188 L 290.925781 235.738281 L 291.234375 238.164062 L 291.546875 240.1875 L 291.855469 241.847656 L 292.164062 243.171875 L 292.472656 244.207031 L 292.78125 244.984375 L 293.089844 245.539062 L 293.398438 245.914062 L 293.707031 246.140625 L 294.015625 246.253906 L 294.328125 246.296875 L 294.636719 246.304688 L 433.390625 246.304688 "/>
    <path style="fill:none;stroke-width:1.066978;stroke-linecap:butt;stroke-linejoin:round;stroke:rgb(0%,75.294118%,55.294118%);stroke-opacity:1;stroke-miterlimit:10;" d="M 186.472656 246.304688 L 276.09375 246.304688 L 276.402344 246.296875 L 276.710938 246.253906 L 277.019531 246.140625 L 277.328125 245.914062 L 277.636719 245.539062 L 277.949219 244.984375 L 278.257812 244.207031 L 278.566406 243.171875 L 278.875 241.847656 L 279.183594 240.1875 L 279.492188 238.164062 L 279.800781 235.738281 L 280.109375 232.867188 L 280.417969 229.523438 L 280.730469 225.664062 L 281.039062 221.253906 L 281.347656 216.257812 L 281.65625 210.640625 L 281.964844 204.359375 L 282.273438 197.382812 L 282.582031 189.695312 L 282.890625 181.382812 L 283.199219 172.558594 L 283.511719 163.332031 L 283.820312 153.808594 L 284.128906 144.105469 L 284.4375 134.324219 L 284.746094 124.582031 L 285.054688 114.988281 L 285.363281 105.648438 L 285.671875 96.679688 L 285.980469 88.183594 L 286.292969 80.277344 L 286.601562 73.066406 L 286.910156 66.664062 L 287.21875 61.179688 L 287.527344 56.71875 L 287.835938 53.398438 L 288.144531 51.328125 L 288.453125 50.609375 L 288.765625 51.328125 L 289.074219 53.398438 L 289.382812 56.71875 L 289.691406 61.179688 L 290 66.664062 L 290.308594 73.066406 L 290.617188 80.277344 L 290.925781 88.183594 L 291.234375 96.679688 L 291.546875 105.648438 L 291.855469 114.988281 L 292.164062 124.582031 L 292.472656 134.324219 L 292.78125 144.105469 L 293.089844 153.808594 L 293.398438 163.332031 L 293.707031 172.558594 L 294.015625 181.382812 L 294.328125 189.695312 L 294.636719 197.382812 L 294.945312 204.359375 L 295.253906 210.640625 L 295.5625 216.257812 L 295.871094 221.253906 L 296.179688 225.664062 L 296.488281 229.523438 L 296.796875 232.867188 L 297.109375 235.738281 L 297.417969 238.164062 L 297.726562 240.1875 L 298.035156 241.847656 L 298.34375 243.171875 L 298.652344 244.207031 L 298.960938 244.984375 L 299.269531 245.539062 L 299.578125 245.914062 L 299.890625 246.140625 L 300.199219 246.253906 L 300.507812 246.296875 L 300.816406 246.304688 L 433.390625 246.304688 "/>
    <path style="fill:none;stroke-width:1.066978;stroke-linecap:butt;stroke-linejoin:round;stroke:rgb(0%,75.686275%,61.176471%);stroke-opacity:1;stroke-miterlimit:10;" d="M 186.472656 246.304688 L 282.273438 246.304688 L 282.582031 246.296875 L 282.890625 246.253906 L 283.199219 246.140625 L 283.511719 245.914062 L 283.820312 245.539062 L 284.128906 244.984375 L 284.4375 244.207031 L 284.746094 243.171875 L 285.054688 241.847656 L 285.363281 240.1875 L 285.671875 238.164062 L 285.980469 235.738281 L 286.292969 232.867188 L 286.601562 229.523438 L 286.910156 225.664062 L 287.21875 221.253906 L 287.527344 216.257812 L 287.835938 210.640625 L 288.144531 204.359375 L 288.453125 197.382812 L 288.765625 189.695312 L 289.074219 181.382812 L 289.382812 172.558594 L 289.691406 163.332031 L 290 153.808594 L 290.308594 144.105469 L 290.617188 134.324219 L 290.925781 124.582031 L 291.234375 114.988281 L 291.546875 105.648438 L 291.855469 96.679688 L 292.164062 88.183594 L 292.472656 80.277344 L 292.78125 73.066406 L 293.089844 66.664062 L 293.398438 61.179688 L 293.707031 56.71875 L 294.015625 53.398438 L 294.328125 51.328125 L 294.636719 50.609375 L 294.945312 51.328125 L 295.253906 53.398438 L 295.5625 56.71875 L 295.871094 61.179688 L 296.179688 66.664062 L 296.488281 73.066406 L 296.796875 80.277344 L 297.109375 88.183594 L 297.417969 96.679688 L 297.726562 105.648438 L 298.035156 114.988281 L 298.34375 124.582031 L 298.652344 134.324219 L 298.960938 144.105469 L 299.269531 153.808594 L 299.578125 163.332031 L 299.890625 172.558594 L 300.199219 181.382812 L 300.507812 189.695312 L 300.816406 197.382812 L 301.125 204.359375 L 301.433594 210.640625 L 301.742188 216.257812 L 302.050781 221.253906 L 302.359375 225.664062 L 302.671875 229.523438 L 302.980469 232.867188 L 303.289062 235.738281 L 303.597656 238.164062 L 303.90625 240.1875 L 304.214844 241.847656 L 304.523438 243.171875 L 304.832031 244.207031 L 305.140625 244.984375 L 305.453125 245.539062 L 305.761719 245.914062 L 306.070312 246.140625 L 306.378906 246.253906 L 306.6875 246.296875 L 306.996094 246.304688 L 433.390625 246.304688 "/>
    <path style="fill:none;stroke-width:1.066978;stroke-linecap:butt;stroke-linejoin:round;stroke:rgb(0%,75.686275%,66.666667%);stroke-opacity:1;stroke-miterlimit:10;" d="M 186.472656 246.304688 L 288.453125 246.304688 L 288.765625 246.296875 L 289.074219 246.253906 L 289.382812 246.140625 L 289.691406 245.914062 L 290 245.539062 L 290.308594 244.984375 L 290.617188 244.207031 L 290.925781 243.171875 L 291.234375 241.847656 L 291.546875 240.1875 L 291.855469 238.164062 L 292.164062 235.738281 L 292.472656 232.867188 L 292.78125 229.523438 L 293.089844 225.664062 L 293.398438 221.253906 L 293.707031 216.257812 L 294.015625 210.640625 L 294.328125 204.359375 L 294.636719 197.382812 L 294.945312 189.695312 L 295.253906 181.382812 L 295.5625 172.558594 L 295.871094 163.332031 L 296.179688 153.808594 L 296.488281 144.105469 L 296.796875 134.324219 L 297.109375 124.582031 L 297.417969 114.988281 L 297.726562 105.648438 L 298.035156 96.679688 L 298.34375 88.183594 L 298.652344 80.277344 L 298.960938 73.066406 L 299.269531 66.664062 L 299.578125 61.179688 L 299.890625 56.71875 L 300.199219 53.398438 L 300.507812 51.328125 L 300.816406 50.609375 L 301.125 51.328125 L 301.433594 53.398438 L 301.742188 56.71875 L 302.050781 61.179688 L 302.359375 66.664062 L 302.671875 73.066406 L 302.980469 80.277344 L 303.289062 88.183594 L 303.597656 96.679688 L 303.90625 105.648438 L 304.214844 114.988281 L 304.523438 124.582031 L 304.832031 134.324219 L 305.140625 144.105469 L 305.453125 153.808594 L 305.761719 163.332031 L 306.070312 172.558594 L 306.378906 181.382812 L 306.6875 189.695312 L 306.996094 197.382812 L 307.304688 204.359375 L 307.613281 210.640625 L 307.925781 216.257812 L 308.234375 221.253906 L 308.542969 225.664062 L 308.851562 229.523438 L 309.160156 232.867188 L 309.46875 235.738281 L 309.777344 238.164062 L 310.085938 240.1875 L 310.394531 241.847656 L 310.707031 243.171875 L 311.015625 244.207031 L 311.324219 244.984375 L 311.632812 245.539062 L 311.941406 245.914062 L 312.25 246.140625 L 312.558594 246.253906 L 312.867188 246.296875 L 313.175781 246.304688 L 433.390625 246.304688 "/>
    <path style="fill:none;stroke-width:1.066978;stroke-linecap:butt;stroke-linejoin:round;stroke:rgb(0%,75.294118%,72.156863%);stroke-opacity:1;stroke-miterlimit:10;" d="M 186.472656 246.304688 L 294.636719 246.304688 L 294.945312 246.296875 L 295.253906 246.253906 L 295.5625 246.140625 L 295.871094 245.914062 L 296.179688 245.539062 L 296.488281 244.984375 L 296.796875 244.207031 L 297.109375 243.171875 L 297.417969 241.847656 L 297.726562 240.1875 L 298.035156 238.164062 L 298.34375 235.738281 L 298.652344 232.867188 L 298.960938 229.523438 L 299.269531 225.664062 L 299.578125 221.253906 L 299.890625 216.257812 L 300.199219 210.640625 L 300.507812 204.359375 L 300.816406 197.382812 L 301.125 189.695312 L 301.433594 181.382812 L 301.742188 172.558594 L 302.050781 163.332031 L 302.359375 153.808594 L 302.671875 144.105469 L 302.980469 134.324219 L 303.289062 124.582031 L 303.597656 114.988281 L 303.90625 105.648438 L 304.214844 96.679688 L 304.523438 88.183594 L 304.832031 80.277344 L 305.140625 73.066406 L 305.453125 66.664062 L 305.761719 61.179688 L 306.070312 56.71875 L 306.378906 53.398438 L 306.6875 51.328125 L 306.996094 50.609375 L 307.304688 51.328125 L 307.613281 53.398438 L 307.925781 56.71875 L 308.234375 61.179688 L 308.542969 66.664062 L 308.851562 73.066406 L 309.160156 80.277344 L 309.46875 88.183594 L 309.777344 96.679688 L 310.085938 105.648438 L 310.394531 114.988281 L 310.707031 124.582031 L 311.015625 134.324219 L 311.324219 144.105469 L 311.632812 153.808594 L 311.941406 163.332031 L 312.25 172.558594 L 312.558594 181.382812 L 312.867188 189.695312 L 313.175781 197.382812 L 313.488281 204.359375 L 313.796875 210.640625 L 314.105469 216.257812 L 314.414062 221.253906 L 314.722656 225.664062 L 315.03125 229.523438 L 315.339844 232.867188 L 315.648438 235.738281 L 315.957031 238.164062 L 316.269531 240.1875 L 316.578125 241.847656 L 316.886719 243.171875 L 317.195312 244.207031 L 317.503906 244.984375 L 317.8125 245.539062 L 318.121094 245.914062 L 318.429688 246.140625 L 318.738281 246.253906 L 319.050781 246.296875 L 319.359375 246.304688 L 433.390625 246.304688 "/>
    <path style="fill:none;stroke-width:1.066978;stroke-linecap:butt;stroke-linejoin:round;stroke:rgb(0%,74.901961%,76.862745%);stroke-opacity:1;stroke-miterlimit:10;" d="M 186.472656 246.304688 L 300.816406 246.304688 L 301.125 246.296875 L 301.433594 246.253906 L 301.742188 246.140625 L 302.050781 245.914062 L 302.359375 245.539062 L 302.671875 244.984375 L 302.980469 244.207031 L 303.289062 243.171875 L 303.597656 241.847656 L 303.90625 240.1875 L 304.214844 238.164062 L 304.523438 235.738281 L 304.832031 232.867188 L 305.140625 229.523438 L 305.453125 225.664062 L 305.761719 221.253906 L 306.070312 216.257812 L 306.378906 210.640625 L 306.6875 204.359375 L 306.996094 197.382812 L 307.304688 189.695312 L 307.613281 181.382812 L 307.925781 172.558594 L 308.234375 163.332031 L 308.542969 153.808594 L 308.851562 144.105469 L 309.160156 134.324219 L 309.46875 124.582031 L 309.777344 114.988281 L 310.085938 105.648438 L 310.394531 96.679688 L 310.707031 88.183594 L 311.015625 80.277344 L 311.324219 73.066406 L 311.632812 66.664062 L 311.941406 61.179688 L 312.25 56.71875 L 312.558594 53.398438 L 312.867188 51.328125 L 313.175781 50.609375 L 313.488281 51.328125 L 313.796875 53.398438 L 314.105469 56.71875 L 314.414062 61.179688 L 314.722656 66.664062 L 315.03125 73.066406 L 315.339844 80.277344 L 315.648438 88.183594 L 315.957031 96.679688 L 316.269531 105.648438 L 316.578125 114.988281 L 316.886719 124.582031 L 317.195312 134.324219 L 317.503906 144.105469 L 317.8125 153.808594 L 318.121094 163.332031 L 318.429688 172.558594 L 318.738281 181.382812 L 319.050781 189.695312 L 319.359375 197.382812 L 319.667969 204.359375 L 319.976562 210.640625 L 320.285156 216.257812 L 320.59375 221.253906 L 320.902344 225.664062 L 321.210938 229.523438 L 321.519531 232.867188 L 321.832031 235.738281 L 322.140625 238.164062 L 322.449219 240.1875 L 322.757812 241.847656 L 323.066406 243.171875 L 323.375 244.207031 L 323.683594 244.984375 L 323.992188 245.539062 L 324.300781 245.914062 L 324.613281 246.140625 L 324.921875 246.253906 L 325.230469 246.296875 L 325.539062 246.304688 L 433.390625 246.304688 "/>
    <path style="fill:none;stroke-width:1.066978;stroke-linecap:butt;stroke-linejoin:round;stroke:rgb(0%,74.117647%,81.568627%);stroke-opacity:1;stroke-miterlimit:10;" d="M 186.472656 246.304688 L 306.996094 246.304688 L 307.304688 246.296875 L 307.613281 246.253906 L 307.925781 246.140625 L 308.234375 245.914062 L 308.542969 245.539062 L 308.851562 244.984375 L 309.160156 244.207031 L 309.46875 243.171875 L 309.777344 241.847656 L 310.085938 240.1875 L 310.394531 238.164062 L 310.707031 235.738281 L 311.015625 232.867188 L 311.324219 229.523438 L 311.632812 225.664062 L 311.941406 221.253906 L 312.25 216.257812 L 312.558594 210.640625 L 312.867188 204.359375 L 313.175781 197.382812 L 313.488281 189.695312 L 313.796875 181.382812 L 314.105469 172.558594 L 314.414062 163.332031 L 314.722656 153.808594 L 315.03125 144.105469 L 315.339844 134.324219 L 315.648438 124.582031 L 315.957031 114.988281 L 316.269531 105.648438 L 316.578125 96.679688 L 316.886719 88.183594 L 317.195312 80.277344 L 317.503906 73.066406 L 317.8125 66.664062 L 318.121094 61.179688 L 318.429688 56.71875 L 318.738281 53.398438 L 319.050781 51.328125 L 319.359375 50.609375 L 319.667969 51.328125 L 319.976562 53.398438 L 320.285156 56.71875 L 320.59375 61.179688 L 320.902344 66.664062 L 321.210938 73.066406 L 321.519531 80.277344 L 321.832031 88.183594 L 322.140625 96.679688 L 322.449219 105.648438 L 322.757812 114.988281 L 323.066406 124.582031 L 323.375 134.324219 L 323.683594 144.105469 L 323.992188 153.808594 L 324.300781 163.332031 L 324.613281 172.558594 L 324.921875 181.382812 L 325.230469 189.695312 L 325.539062 197.382812 L 325.847656 204.359375 L 326.15625 210.640625 L 326.464844 216.257812 L 326.773438 221.253906 L 327.085938 225.664062 L 327.394531 229.523438 L 327.703125 232.867188 L 328.011719 235.738281 L 328.320312 238.164062 L 328.628906 240.1875 L 328.9375 241.847656 L 329.246094 243.171875 L 329.554688 244.207031 L 329.867188 244.984375 L 330.175781 245.539062 L 330.484375 245.914062 L 330.792969 246.140625 L 331.101562 246.253906 L 331.410156 246.296875 L 331.71875 246.304688 L 433.390625 246.304688 "/>
    <path style="fill:none;stroke-width:1.066978;stroke-linecap:butt;stroke-linejoin:round;stroke:rgb(0%,73.333333%,85.882353%);stroke-opacity:1;stroke-miterlimit:10;" d="M 186.472656 246.304688 L 313.175781 246.304688 L 313.488281 246.296875 L 313.796875 246.253906 L 314.105469 246.140625 L 314.414062 245.914062 L 314.722656 245.539062 L 315.03125 244.984375 L 315.339844 244.207031 L 315.648438 243.171875 L 315.957031 241.847656 L 316.269531 240.1875 L 316.578125 238.164062 L 316.886719 235.738281 L 317.195312 232.867188 L 317.503906 229.523438 L 317.8125 225.664062 L 318.121094 221.253906 L 318.429688 216.257812 L 318.738281 210.640625 L 319.050781 204.359375 L 319.359375 197.382812 L 319.667969 189.695312 L 319.976562 181.382812 L 320.285156 172.558594 L 320.59375 163.332031 L 320.902344 153.808594 L 321.210938 144.105469 L 321.519531 134.324219 L 321.832031 124.582031 L 322.140625 114.988281 L 322.449219 105.648438 L 322.757812 96.679688 L 323.066406 88.183594 L 323.375 80.277344 L 323.683594 73.066406 L 323.992188 66.664062 L 324.300781 61.179688 L 324.613281 56.71875 L 324.921875 53.398438 L 325.230469 51.328125 L 325.539062 50.609375 L 325.847656 51.328125 L 326.15625 53.398438 L 326.464844 56.71875 L 326.773438 61.179688 L 327.085938 66.664062 L 327.394531 73.066406 L 327.703125 80.277344 L 328.011719 88.183594 L 328.320312 96.679688 L 328.628906 105.648438 L 328.9375 114.988281 L 329.246094 124.582031 L 329.554688 134.324219 L 329.867188 144.105469 L 330.175781 153.808594 L 330.484375 163.332031 L 330.792969 172.558594 L 331.101562 181.382812 L 331.410156 189.695312 L 331.71875 197.382812 L 332.027344 204.359375 L 332.335938 210.640625 L 332.648438 216.257812 L 332.957031 221.253906 L 333.265625 225.664062 L 333.574219 229.523438 L 333.882812 232.867188 L 334.191406 235.738281 L 334.5 238.164062 L 334.808594 240.1875 L 335.117188 241.847656 L 335.429688 243.171875 L 335.738281 244.207031 L 336.046875 244.984375 L 336.355469 245.539062 L 336.664062 245.914062 L 336.972656 246.140625 L 337.28125 246.253906 L 337.589844 246.296875 L 337.898438 246.304688 L 433.390625 246.304688 "/>
    <path style="fill:none;stroke-width:1.066978;stroke-linecap:butt;stroke-linejoin:round;stroke:rgb(0%,72.156863%,89.803922%);stroke-opacity:1;stroke-miterlimit:10;" d="M 186.472656 246.304688 L 319.359375 246.304688 L 319.667969 246.296875 L 319.976562 246.253906 L 320.285156 246.140625 L 320.59375 245.914062 L 320.902344 245.539062 L 321.210938 244.984375 L 321.519531 244.207031 L 321.832031 243.171875 L 322.140625 241.847656 L 322.449219 240.1875 L 322.757812 238.164062 L 323.066406 235.738281 L 323.375 232.867188 L 323.683594 229.523438 L 323.992188 225.664062 L 324.300781 221.253906 L 324.613281 216.257812 L 324.921875 210.640625 L 325.230469 204.359375 L 325.539062 197.382812 L 325.847656 189.695312 L 326.15625 181.382812 L 326.464844 172.558594 L 326.773438 163.332031 L 327.085938 153.808594 L 327.394531 144.105469 L 327.703125 134.324219 L 328.011719 124.582031 L 328.320312 114.988281 L 328.628906 105.648438 L 328.9375 96.679688 L 329.246094 88.183594 L 329.554688 80.277344 L 329.867188 73.066406 L 330.175781 66.664062 L 330.484375 61.179688 L 330.792969 56.71875 L 331.101562 53.398438 L 331.410156 51.328125 L 331.71875 50.609375 L 332.027344 51.328125 L 332.335938 53.398438 L 332.648438 56.71875 L 332.957031 61.179688 L 333.265625 66.664062 L 333.574219 73.066406 L 333.882812 80.277344 L 334.191406 88.183594 L 334.5 96.679688 L 334.808594 105.648438 L 335.117188 114.988281 L 335.429688 124.582031 L 335.738281 134.324219 L 336.046875 144.105469 L 336.355469 153.808594 L 336.664062 163.332031 L 336.972656 172.558594 L 337.28125 181.382812 L 337.589844 189.695312 L 337.898438 197.382812 L 338.210938 204.359375 L 338.519531 210.640625 L 338.828125 216.257812 L 339.136719 221.253906 L 339.445312 225.664062 L 339.753906 229.523438 L 340.0625 232.867188 L 340.371094 235.738281 L 340.679688 238.164062 L 340.992188 240.1875 L 341.300781 241.847656 L 341.609375 243.171875 L 341.917969 244.207031 L 342.226562 244.984375 L 342.535156 245.539062 L 342.84375 245.914062 L 343.152344 246.140625 L 343.464844 246.253906 L 343.773438 246.296875 L 344.082031 246.304688 L 433.390625 246.304688 "/>
    <path style="fill:none;stroke-width:1.066978;stroke-linecap:butt;stroke-linejoin:round;stroke:rgb(0%,70.588235%,93.72549%);stroke-opacity:1;stroke-miterlimit:10;" d="M 186.472656 246.304688 L 325.539062 246.304688 L 325.847656 246.296875 L 326.15625 246.253906 L 326.464844 246.140625 L 326.773438 245.914062 L 327.085938 245.539062 L 327.394531 244.984375 L 327.703125 244.207031 L 328.011719 243.171875 L 328.320312 241.847656 L 328.628906 240.1875 L 328.9375 238.164062 L 329.246094 235.738281 L 329.554688 232.867188 L 329.867188 229.523438 L 330.175781 225.664062 L 330.484375 221.253906 L 330.792969 216.257812 L 331.101562 210.640625 L 331.410156 204.359375 L 331.71875 197.382812 L 332.027344 189.695312 L 332.335938 181.382812 L 332.648438 172.558594 L 332.957031 163.332031 L 333.265625 153.808594 L 333.574219 144.105469 L 333.882812 134.324219 L 334.191406 124.582031 L 334.5 114.988281 L 334.808594 105.648438 L 335.117188 96.679688 L 335.429688 88.183594 L 335.738281 80.277344 L 336.046875 73.066406 L 336.355469 66.664062 L 336.664062 61.179688 L 336.972656 56.71875 L 337.28125 53.398438 L 337.589844 51.328125 L 337.898438 50.609375 L 338.210938 51.328125 L 338.519531 53.398438 L 338.828125 56.71875 L 339.136719 61.179688 L 339.445312 66.664062 L 339.753906 73.066406 L 340.0625 80.277344 L 340.371094 88.183594 L 340.679688 96.679688 L 340.992188 105.648438 L 341.300781 114.988281 L 341.609375 124.582031 L 341.917969 134.324219 L 342.226562 144.105469 L 342.535156 153.808594 L 342.84375 163.332031 L 343.152344 172.558594 L 343.464844 181.382812 L 343.773438 189.695312 L 344.082031 197.382812 L 344.390625 204.359375 L 344.699219 210.640625 L 345.007812 216.257812 L 345.316406 221.253906 L 345.625 225.664062 L 345.933594 229.523438 L 346.246094 232.867188 L 346.554688 235.738281 L 346.863281 238.164062 L 347.171875 240.1875 L 347.480469 241.847656 L 347.789062 243.171875 L 348.097656 244.207031 L 348.40625 244.984375 L 348.714844 245.539062 L 349.027344 245.914062 L 349.335938 246.140625 L 349.644531 246.253906 L 349.953125 246.296875 L 350.261719 246.304688 L 433.390625 246.304688 "/>
    <path style="fill:none;stroke-width:1.066978;stroke-linecap:butt;stroke-linejoin:round;stroke:rgb(0%,69.019608%,96.470588%);stroke-opacity:1;stroke-miterlimit:10;" d="M 186.472656 246.304688 L 331.71875 246.304688 L 332.027344 246.296875 L 332.335938 246.253906 L 332.648438 246.140625 L 332.957031 245.914062 L 333.265625 245.539062 L 333.574219 244.984375 L 333.882812 244.207031 L 334.191406 243.171875 L 334.5 241.847656 L 334.808594 240.1875 L 335.117188 238.164062 L 335.429688 235.738281 L 335.738281 232.867188 L 336.046875 229.523438 L 336.355469 225.664062 L 336.664062 221.253906 L 336.972656 216.257812 L 337.28125 210.640625 L 337.589844 204.359375 L 337.898438 197.382812 L 338.210938 189.695312 L 338.519531 181.382812 L 338.828125 172.558594 L 339.136719 163.332031 L 339.445312 153.808594 L 339.753906 144.105469 L 340.0625 134.324219 L 340.371094 124.582031 L 340.679688 114.988281 L 340.992188 105.648438 L 341.300781 96.679688 L 341.609375 88.183594 L 341.917969 80.277344 L 342.226562 73.066406 L 342.535156 66.664062 L 342.84375 61.179688 L 343.152344 56.71875 L 343.464844 53.398438 L 343.773438 51.328125 L 344.082031 50.609375 L 344.390625 51.328125 L 344.699219 53.398438 L 345.007812 56.71875 L 345.316406 61.179688 L 345.625 66.664062 L 345.933594 73.066406 L 346.246094 80.277344 L 346.554688 88.183594 L 346.863281 96.679688 L 347.171875 105.648438 L 347.480469 114.988281 L 347.789062 124.582031 L 348.097656 134.324219 L 348.40625 144.105469 L 348.714844 153.808594 L 349.027344 163.332031 L 349.335938 172.558594 L 349.644531 181.382812 L 349.953125 189.695312 L 350.261719 197.382812 L 350.570312 204.359375 L 350.878906 210.640625 L 351.1875 216.257812 L 351.496094 221.253906 L 351.808594 225.664062 L 352.117188 229.523438 L 352.425781 232.867188 L 352.734375 235.738281 L 353.042969 238.164062 L 353.351562 240.1875 L 353.660156 241.847656 L 353.96875 243.171875 L 354.277344 244.207031 L 354.589844 244.984375 L 354.898438 245.539062 L 355.207031 245.914062 L 355.515625 246.140625 L 355.824219 246.253906 L 356.132812 246.296875 L 356.441406 246.304688 L 433.390625 246.304688 "/>
    <path style="fill:none;stroke-width:1.066978;stroke-linecap:butt;stroke-linejoin:round;stroke:rgb(0%,67.058824%,99.215686%);stroke-opacity:1;stroke-miterlimit:10;" d="M 186.472656 246.304688 L 337.898438 246.304688 L 338.210938 246.296875 L 338.519531 246.253906 L 338.828125 246.140625 L 339.136719 245.914062 L 339.445312 245.539062 L 339.753906 244.984375 L 340.0625 244.207031 L 340.371094 243.171875 L 340.679688 241.847656 L 340.992188 240.1875 L 341.300781 238.164062 L 341.609375 235.738281 L 341.917969 232.867188 L 342.226562 229.523438 L 342.535156 225.664062 L 342.84375 221.253906 L 343.152344 216.257812 L 343.464844 210.640625 L 343.773438 204.359375 L 344.082031 197.382812 L 344.390625 189.695312 L 344.699219 181.382812 L 345.007812 172.558594 L 345.316406 163.332031 L 345.625 153.808594 L 345.933594 144.105469 L 346.246094 134.324219 L 346.554688 124.582031 L 346.863281 114.988281 L 347.171875 105.648438 L 347.480469 96.679688 L 347.789062 88.183594 L 348.097656 80.277344 L 348.40625 73.066406 L 348.714844 66.664062 L 349.027344 61.179688 L 349.335938 56.71875 L 349.644531 53.398438 L 349.953125 51.328125 L 350.261719 50.609375 L 350.570312 51.328125 L 350.878906 53.398438 L 351.1875 56.71875 L 351.496094 61.179688 L 351.808594 66.664062 L 352.117188 73.066406 L 352.425781 80.277344 L 352.734375 88.183594 L 353.042969 96.679688 L 353.351562 105.648438 L 353.660156 114.988281 L 353.96875 124.582031 L 354.277344 134.324219 L 354.589844 144.105469 L 354.898438 153.808594 L 355.207031 163.332031 L 355.515625 172.558594 L 355.824219 181.382812 L 356.132812 189.695312 L 356.441406 197.382812 L 356.75 204.359375 L 357.058594 210.640625 L 357.371094 216.257812 L 357.679688 221.253906 L 357.988281 225.664062 L 358.296875 229.523438 L 358.605469 232.867188 L 358.914062 235.738281 L 359.222656 238.164062 L 359.53125 240.1875 L 359.839844 241.847656 L 360.152344 243.171875 L 360.460938 244.207031 L 360.769531 244.984375 L 361.078125 245.539062 L 361.386719 245.914062 L 361.695312 246.140625 L 362.003906 246.253906 L 362.3125 246.296875 L 362.625 246.304688 L 433.390625 246.304688 "/>
    <path style="fill:none;stroke-width:1.066978;stroke-linecap:butt;stroke-linejoin:round;stroke:rgb(0%,64.705882%,100%);stroke-opacity:1;stroke-miterlimit:10;" d="M 186.472656 246.304688 L 344.082031 246.304688 L 344.390625 246.296875 L 344.699219 246.253906 L 345.007812 246.140625 L 345.316406 245.914062 L 345.625 245.539062 L 345.933594 244.984375 L 346.246094 244.207031 L 346.554688 243.171875 L 346.863281 241.847656 L 347.171875 240.1875 L 347.480469 238.164062 L 347.789062 235.738281 L 348.097656 232.867188 L 348.40625 229.523438 L 348.714844 225.664062 L 349.027344 221.253906 L 349.335938 216.257812 L 349.644531 210.640625 L 349.953125 204.359375 L 350.261719 197.382812 L 350.570312 189.695312 L 350.878906 181.382812 L 351.1875 172.558594 L 351.496094 163.332031 L 351.808594 153.808594 L 352.117188 144.105469 L 352.425781 134.324219 L 352.734375 124.582031 L 353.042969 114.988281 L 353.351562 105.648438 L 353.660156 96.679688 L 353.96875 88.183594 L 354.277344 80.277344 L 354.589844 73.066406 L 354.898438 66.664062 L 355.207031 61.179688 L 355.515625 56.71875 L 355.824219 53.398438 L 356.132812 51.328125 L 356.441406 50.609375 L 356.75 51.328125 L 357.058594 53.398438 L 357.371094 56.71875 L 357.679688 61.179688 L 357.988281 66.664062 L 358.296875 73.066406 L 358.605469 80.277344 L 358.914062 88.183594 L 359.222656 96.679688 L 359.53125 105.648438 L 359.839844 114.988281 L 360.152344 124.582031 L 360.460938 134.324219 L 360.769531 144.105469 L 361.078125 153.808594 L 361.386719 163.332031 L 361.695312 172.558594 L 362.003906 181.382812 L 362.3125 189.695312 L 362.625 197.382812 L 362.933594 204.359375 L 363.242188 210.640625 L 363.550781 216.257812 L 363.859375 221.253906 L 364.167969 225.664062 L 364.476562 229.523438 L 364.785156 232.867188 L 365.09375 235.738281 L 365.40625 238.164062 L 365.714844 240.1875 L 366.023438 241.847656 L 366.332031 243.171875 L 366.640625 244.207031 L 366.949219 244.984375 L 367.257812 245.539062 L 367.566406 245.914062 L 367.875 246.140625 L 368.1875 246.253906 L 368.496094 246.296875 L 368.804688 246.304688 L 433.390625 246.304688 "/>
    <path style="fill:none;stroke-width:1.066978;stroke-linecap:butt;stroke-linejoin:round;stroke:rgb(32.156863%,61.960784%,100%);stroke-opacity:1;stroke-miterlimit:10;" d="M 186.472656 246.304688 L 350.261719 246.304688 L 350.570312 246.296875 L 350.878906 246.253906 L 351.1875 246.140625 L 351.496094 245.914062 L 351.808594 245.539062 L 352.117188 244.984375 L 352.425781 244.207031 L 352.734375 243.171875 L 353.042969 241.847656 L 353.351562 240.1875 L 353.660156 238.164062 L 353.96875 235.738281 L 354.277344 232.867188 L 354.589844 229.523438 L 354.898438 225.664062 L 355.207031 221.253906 L 355.515625 216.257812 L 355.824219 210.640625 L 356.132812 204.359375 L 356.441406 197.382812 L 356.75 189.695312 L 357.058594 181.382812 L 357.371094 172.558594 L 357.679688 163.332031 L 357.988281 153.808594 L 358.296875 144.105469 L 358.605469 134.324219 L 358.914062 124.582031 L 359.222656 114.988281 L 359.53125 105.648438 L 359.839844 96.679688 L 360.152344 88.183594 L 360.460938 80.277344 L 360.769531 73.066406 L 361.078125 66.664062 L 361.386719 61.179688 L 361.695312 56.71875 L 362.003906 53.398438 L 362.3125 51.328125 L 362.625 50.609375 L 362.933594 51.328125 L 363.242188 53.398438 L 363.550781 56.71875 L 363.859375 61.179688 L 364.167969 66.664062 L 364.476562 73.066406 L 364.785156 80.277344 L 365.09375 88.183594 L 365.40625 96.679688 L 365.714844 105.648438 L 366.023438 114.988281 L 366.332031 124.582031 L 366.640625 134.324219 L 366.949219 144.105469 L 367.257812 153.808594 L 367.566406 163.332031 L 367.875 172.558594 L 368.1875 181.382812 L 368.496094 189.695312 L 368.804688 197.382812 L 369.113281 204.359375 L 369.421875 210.640625 L 369.730469 216.257812 L 370.039062 221.253906 L 370.347656 225.664062 L 370.65625 229.523438 L 370.96875 232.867188 L 371.277344 235.738281 L 371.585938 238.164062 L 371.894531 240.1875 L 372.203125 241.847656 L 372.511719 243.171875 L 372.820312 244.207031 L 373.128906 244.984375 L 373.4375 245.539062 L 373.75 245.914062 L 374.058594 246.140625 L 374.367188 246.253906 L 374.675781 246.296875 L 374.984375 246.304688 L 433.390625 246.304688 "/>
    <path style="fill:none;stroke-width:1.066978;stroke-linecap:butt;stroke-linejoin:round;stroke:rgb(47.45098%,59.215686%,100%);stroke-opacity:1;stroke-miterlimit:10;" d="M 186.472656 246.304688 L 356.441406 246.304688 L 356.75 246.296875 L 357.058594 246.253906 L 357.371094 246.140625 L 357.679688 245.914062 L 357.988281 245.539062 L 358.296875 244.984375 L 358.605469 244.207031 L 358.914062 243.171875 L 359.222656 241.847656 L 359.53125 240.1875 L 359.839844 238.164062 L 360.152344 235.738281 L 360.460938 232.867188 L 360.769531 229.523438 L 361.078125 225.664062 L 361.386719 221.253906 L 361.695312 216.257812 L 362.003906 210.640625 L 362.3125 204.359375 L 362.625 197.382812 L 362.933594 189.695312 L 363.242188 181.382812 L 363.550781 172.558594 L 363.859375 163.332031 L 364.167969 153.808594 L 364.476562 144.105469 L 364.785156 134.324219 L 365.09375 124.582031 L 365.40625 114.988281 L 365.714844 105.648438 L 366.023438 96.679688 L 366.332031 88.183594 L 366.640625 80.277344 L 366.949219 73.066406 L 367.257812 66.664062 L 367.566406 61.179688 L 367.875 56.71875 L 368.1875 53.398438 L 368.496094 51.328125 L 368.804688 50.609375 L 369.113281 51.328125 L 369.421875 53.398438 L 369.730469 56.71875 L 370.039062 61.179688 L 370.347656 66.664062 L 370.65625 73.066406 L 370.96875 80.277344 L 371.277344 88.183594 L 371.585938 96.679688 L 371.894531 105.648438 L 372.203125 114.988281 L 372.511719 124.582031 L 372.820312 134.324219 L 373.128906 144.105469 L 373.4375 153.808594 L 373.75 163.332031 L 374.058594 172.558594 L 374.367188 181.382812 L 374.675781 189.695312 L 374.984375 197.382812 L 375.292969 204.359375 L 375.601562 210.640625 L 375.910156 216.257812 L 376.21875 221.253906 L 376.53125 225.664062 L 376.839844 229.523438 L 377.148438 232.867188 L 377.457031 235.738281 L 377.765625 238.164062 L 378.074219 240.1875 L 378.382812 241.847656 L 378.691406 243.171875 L 379 244.207031 L 379.3125 244.984375 L 379.621094 245.539062 L 379.929688 245.914062 L 380.238281 246.140625 L 380.546875 246.253906 L 380.855469 246.296875 L 381.164062 246.304688 L 433.390625 246.304688 "/>
    <path style="fill:none;stroke-width:1.066978;stroke-linecap:butt;stroke-linejoin:round;stroke:rgb(58.431373%,56.470588%,100%);stroke-opacity:1;stroke-miterlimit:10;" d="M 186.472656 246.304688 L 362.625 246.304688 L 362.933594 246.296875 L 363.242188 246.253906 L 363.550781 246.140625 L 363.859375 245.914062 L 364.167969 245.539062 L 364.476562 244.984375 L 364.785156 244.207031 L 365.09375 243.171875 L 365.40625 241.847656 L 365.714844 240.1875 L 366.023438 238.164062 L 366.332031 235.738281 L 366.640625 232.867188 L 366.949219 229.523438 L 367.257812 225.664062 L 367.566406 221.253906 L 367.875 216.257812 L 368.1875 210.640625 L 368.496094 204.359375 L 368.804688 197.382812 L 369.113281 189.695312 L 369.421875 181.382812 L 369.730469 172.558594 L 370.039062 163.332031 L 370.347656 153.808594 L 370.65625 144.105469 L 370.96875 134.324219 L 371.277344 124.582031 L 371.585938 114.988281 L 371.894531 105.648438 L 372.203125 96.679688 L 372.511719 88.183594 L 372.820312 80.277344 L 373.128906 73.066406 L 373.4375 66.664062 L 373.75 61.179688 L 374.058594 56.71875 L 374.367188 53.398438 L 374.675781 51.328125 L 374.984375 50.609375 L 375.292969 51.328125 L 375.601562 53.398438 L 375.910156 56.71875 L 376.21875 61.179688 L 376.53125 66.664062 L 376.839844 73.066406 L 377.148438 80.277344 L 377.457031 88.183594 L 377.765625 96.679688 L 378.074219 105.648438 L 378.382812 114.988281 L 378.691406 124.582031 L 379 134.324219 L 379.3125 144.105469 L 379.621094 153.808594 L 379.929688 163.332031 L 380.238281 172.558594 L 380.546875 181.382812 L 380.855469 189.695312 L 381.164062 197.382812 L 381.472656 204.359375 L 381.785156 210.640625 L 382.09375 216.257812 L 382.402344 221.253906 L 382.710938 225.664062 L 383.019531 229.523438 L 383.328125 232.867188 L 383.636719 235.738281 L 383.945312 238.164062 L 384.253906 240.1875 L 384.566406 241.847656 L 384.875 243.171875 L 385.183594 244.207031 L 385.492188 244.984375 L 385.800781 245.539062 L 386.109375 245.914062 L 386.417969 246.140625 L 386.726562 246.253906 L 387.035156 246.296875 L 387.347656 246.304688 L 433.390625 246.304688 "/>
    <path style="fill:none;stroke-width:1.066978;stroke-linecap:butt;stroke-linejoin:round;stroke:rgb(67.45098%,53.333333%,100%);stroke-opacity:1;stroke-miterlimit:10;" d="M 186.472656 246.304688 L 368.804688 246.304688 L 369.113281 246.296875 L 369.421875 246.253906 L 369.730469 246.140625 L 370.039062 245.914062 L 370.347656 245.539062 L 370.65625 244.984375 L 370.96875 244.207031 L 371.277344 243.171875 L 371.585938 241.847656 L 371.894531 240.1875 L 372.203125 238.164062 L 372.511719 235.738281 L 372.820312 232.867188 L 373.128906 229.523438 L 373.4375 225.664062 L 373.75 221.253906 L 374.058594 216.257812 L 374.367188 210.640625 L 374.675781 204.359375 L 374.984375 197.382812 L 375.292969 189.695312 L 375.601562 181.382812 L 375.910156 172.558594 L 376.21875 163.332031 L 376.53125 153.808594 L 376.839844 144.105469 L 377.148438 134.324219 L 377.457031 124.582031 L 377.765625 114.988281 L 378.074219 105.648438 L 378.382812 96.679688 L 378.691406 88.183594 L 379 80.277344 L 379.3125 73.066406 L 379.621094 66.664062 L 379.929688 61.179688 L 380.238281 56.71875 L 380.546875 53.398438 L 380.855469 51.328125 L 381.164062 50.609375 L 381.472656 51.328125 L 381.785156 53.398438 L 382.09375 56.71875 L 382.402344 61.179688 L 382.710938 66.664062 L 383.019531 73.066406 L 383.328125 80.277344 L 383.636719 88.183594 L 383.945312 96.679688 L 384.253906 105.648438 L 384.566406 114.988281 L 384.875 124.582031 L 385.183594 134.324219 L 385.492188 144.105469 L 385.800781 153.808594 L 386.109375 163.332031 L 386.417969 172.558594 L 386.726562 181.382812 L 387.035156 189.695312 L 387.347656 197.382812 L 387.65625 204.359375 L 387.964844 210.640625 L 388.273438 216.257812 L 388.582031 221.253906 L 388.890625 225.664062 L 389.199219 229.523438 L 389.507812 232.867188 L 389.816406 235.738281 L 390.128906 238.164062 L 390.4375 240.1875 L 390.746094 241.847656 L 391.054688 243.171875 L 391.363281 244.207031 L 391.671875 244.984375 L 391.980469 245.539062 L 392.289062 245.914062 L 392.597656 246.140625 L 392.910156 246.253906 L 393.21875 246.296875 L 393.527344 246.304688 L 433.390625 246.304688 "/>
    <path style="fill:none;stroke-width:1.066978;stroke-linecap:butt;stroke-linejoin:round;stroke:rgb(74.901961%,50.196078%,100%);stroke-opacity:1;stroke-miterlimit:10;" d="M 186.472656 246.304688 L 374.984375 246.304688 L 375.292969 246.296875 L 375.601562 246.253906 L 375.910156 246.140625 L 376.21875 245.914062 L 376.53125 245.539062 L 376.839844 244.984375 L 377.148438 244.207031 L 377.457031 243.171875 L 377.765625 241.847656 L 378.074219 240.1875 L 378.382812 238.164062 L 378.691406 235.738281 L 379 232.867188 L 379.3125 229.523438 L 379.621094 225.664062 L 379.929688 221.253906 L 380.238281 216.257812 L 380.546875 210.640625 L 380.855469 204.359375 L 381.164062 197.382812 L 381.472656 189.695312 L 381.785156 181.382812 L 382.09375 172.558594 L 382.402344 163.332031 L 382.710938 153.808594 L 383.019531 144.105469 L 383.328125 134.324219 L 383.636719 124.582031 L 383.945312 114.988281 L 384.253906 105.648438 L 384.566406 96.679688 L 384.875 88.183594 L 385.183594 80.277344 L 385.492188 73.066406 L 385.800781 66.664062 L 386.109375 61.179688 L 386.417969 56.71875 L 386.726562 53.398438 L 387.035156 51.328125 L 387.347656 50.609375 L 387.65625 51.328125 L 387.964844 53.398438 L 388.273438 56.71875 L 388.582031 61.179688 L 388.890625 66.664062 L 389.199219 73.066406 L 389.507812 80.277344 L 389.816406 88.183594 L 390.128906 96.679688 L 390.4375 105.648438 L 390.746094 114.988281 L 391.054688 124.582031 L 391.363281 134.324219 L 391.671875 144.105469 L 391.980469 153.808594 L 392.289062 163.332031 L 392.597656 172.558594 L 392.910156 181.382812 L 393.21875 189.695312 L 393.527344 197.382812 L 393.835938 204.359375 L 394.144531 210.640625 L 394.453125 216.257812 L 394.761719 221.253906 L 395.070312 225.664062 L 395.378906 229.523438 L 395.691406 232.867188 L 396 235.738281 L 396.308594 238.164062 L 396.617188 240.1875 L 396.925781 241.847656 L 397.234375 243.171875 L 397.542969 244.207031 L 397.851562 244.984375 L 398.164062 245.539062 L 398.472656 245.914062 L 398.78125 246.140625 L 399.089844 246.253906 L 399.398438 246.296875 L 399.707031 246.304688 L 433.390625 246.304688 "/>
    <path style="fill:none;stroke-width:1.066978;stroke-linecap:butt;stroke-linejoin:round;stroke:rgb(81.176471%,47.058824%,100%);stroke-opacity:1;stroke-miterlimit:10;" d="M 186.472656 246.304688 L 381.164062 246.304688 L 381.472656 246.296875 L 381.785156 246.253906 L 382.09375 246.140625 L 382.402344 245.914062 L 382.710938 245.539062 L 383.019531 244.984375 L 383.328125 244.207031 L 383.636719 243.171875 L 383.945312 241.847656 L 384.253906 240.1875 L 384.566406 238.164062 L 384.875 235.738281 L 385.183594 232.867188 L 385.492188 229.523438 L 385.800781 225.664062 L 386.109375 221.253906 L 386.417969 216.257812 L 386.726562 210.640625 L 387.035156 204.359375 L 387.347656 197.382812 L 387.65625 189.695312 L 387.964844 181.382812 L 388.273438 172.558594 L 388.582031 163.332031 L 388.890625 153.808594 L 389.199219 144.105469 L 389.507812 134.324219 L 389.816406 124.582031 L 390.128906 114.988281 L 390.4375 105.648438 L 390.746094 96.679688 L 391.054688 88.183594 L 391.363281 80.277344 L 391.671875 73.066406 L 391.980469 66.664062 L 392.289062 61.179688 L 392.597656 56.71875 L 392.910156 53.398438 L 393.21875 51.328125 L 393.527344 50.609375 L 393.835938 51.328125 L 394.144531 53.398438 L 394.453125 56.71875 L 394.761719 61.179688 L 395.070312 66.664062 L 395.378906 73.066406 L 395.691406 80.277344 L 396 88.183594 L 396.308594 96.679688 L 396.617188 105.648438 L 396.925781 114.988281 L 397.234375 124.582031 L 397.542969 134.324219 L 397.851562 144.105469 L 398.164062 153.808594 L 398.472656 163.332031 L 398.78125 172.558594 L 399.089844 181.382812 L 399.398438 189.695312 L 399.707031 197.382812 L 400.015625 204.359375 L 400.324219 210.640625 L 400.632812 216.257812 L 400.945312 221.253906 L 401.253906 225.664062 L 401.5625 229.523438 L 401.871094 232.867188 L 402.179688 235.738281 L 402.488281 238.164062 L 402.796875 240.1875 L 403.105469 241.847656 L 403.414062 243.171875 L 403.726562 244.207031 L 404.035156 244.984375 L 404.34375 245.539062 L 404.652344 245.914062 L 404.960938 246.140625 L 405.269531 246.253906 L 405.578125 246.296875 L 405.886719 246.304688 L 433.390625 246.304688 "/>
    <path style="fill:none;stroke-width:1.066978;stroke-linecap:butt;stroke-linejoin:round;stroke:rgb(86.27451%,44.313725%,98.039216%);stroke-opacity:1;stroke-miterlimit:10;" d="M 186.472656 246.304688 L 387.347656 246.304688 L 387.65625 246.296875 L 387.964844 246.253906 L 388.273438 246.140625 L 388.582031 245.914062 L 388.890625 245.539062 L 389.199219 244.984375 L 389.507812 244.207031 L 389.816406 243.171875 L 390.128906 241.847656 L 390.4375 240.1875 L 390.746094 238.164062 L 391.054688 235.738281 L 391.363281 232.867188 L 391.671875 229.523438 L 391.980469 225.664062 L 392.289062 221.253906 L 392.597656 216.257812 L 392.910156 210.640625 L 393.21875 204.359375 L 393.527344 197.382812 L 393.835938 189.695312 L 394.144531 181.382812 L 394.453125 172.558594 L 394.761719 163.332031 L 395.070312 153.808594 L 395.378906 144.105469 L 395.691406 134.324219 L 396 124.582031 L 396.308594 114.988281 L 396.617188 105.648438 L 396.925781 96.679688 L 397.234375 88.183594 L 397.542969 80.277344 L 397.851562 73.066406 L 398.164062 66.664062 L 398.472656 61.179688 L 398.78125 56.71875 L 399.089844 53.398438 L 399.398438 51.328125 L 399.707031 50.609375 L 400.015625 51.328125 L 400.324219 53.398438 L 400.632812 56.71875 L 400.945312 61.179688 L 401.253906 66.664062 L 401.5625 73.066406 L 401.871094 80.277344 L 402.179688 88.183594 L 402.488281 96.679688 L 402.796875 105.648438 L 403.105469 114.988281 L 403.414062 124.582031 L 403.726562 134.324219 L 404.035156 144.105469 L 404.34375 153.808594 L 404.652344 163.332031 L 404.960938 172.558594 L 405.269531 181.382812 L 405.578125 189.695312 L 405.886719 197.382812 L 406.195312 204.359375 L 406.507812 210.640625 L 406.816406 216.257812 L 407.125 221.253906 L 407.433594 225.664062 L 407.742188 229.523438 L 408.050781 232.867188 L 408.359375 235.738281 L 408.667969 238.164062 L 408.976562 240.1875 L 409.289062 241.847656 L 409.597656 243.171875 L 409.90625 244.207031 L 410.214844 244.984375 L 410.523438 245.539062 L 410.832031 245.914062 L 411.140625 246.140625 L 411.449219 246.253906 L 411.757812 246.296875 L 412.070312 246.304688 L 433.390625 246.304688 "/>
    <path style="fill:none;stroke-width:1.066978;stroke-linecap:butt;stroke-linejoin:round;stroke:rgb(90.588235%,41.960784%,95.294118%);stroke-opacity:1;stroke-miterlimit:10;" d="M 186.472656 246.304688 L 393.527344 246.304688 L 393.835938 246.296875 L 394.144531 246.253906 L 394.453125 246.140625 L 394.761719 245.914062 L 395.070312 245.539062 L 395.378906 244.984375 L 395.691406 244.207031 L 396 243.171875 L 396.308594 241.847656 L 396.617188 240.1875 L 396.925781 238.164062 L 397.234375 235.738281 L 397.542969 232.867188 L 397.851562 229.523438 L 398.164062 225.664062 L 398.472656 221.253906 L 398.78125 216.257812 L 399.089844 210.640625 L 399.398438 204.359375 L 399.707031 197.382812 L 400.015625 189.695312 L 400.324219 181.382812 L 400.632812 172.558594 L 400.945312 163.332031 L 401.253906 153.808594 L 401.5625 144.105469 L 401.871094 134.324219 L 402.179688 124.582031 L 402.488281 114.988281 L 402.796875 105.648438 L 403.105469 96.679688 L 403.414062 88.183594 L 403.726562 80.277344 L 404.035156 73.066406 L 404.34375 66.664062 L 404.652344 61.179688 L 404.960938 56.71875 L 405.269531 53.398438 L 405.578125 51.328125 L 405.886719 50.609375 L 406.195312 51.328125 L 406.507812 53.398438 L 406.816406 56.71875 L 407.125 61.179688 L 407.433594 66.664062 L 407.742188 73.066406 L 408.050781 80.277344 L 408.359375 88.183594 L 408.667969 96.679688 L 408.976562 105.648438 L 409.289062 114.988281 L 409.597656 124.582031 L 409.90625 134.324219 L 410.214844 144.105469 L 410.523438 153.808594 L 410.832031 163.332031 L 411.140625 172.558594 L 411.449219 181.382812 L 411.757812 189.695312 L 412.070312 197.382812 L 412.378906 204.359375 L 412.6875 210.640625 L 412.996094 216.257812 L 413.304688 221.253906 L 413.613281 225.664062 L 413.921875 229.523438 L 414.230469 232.867188 L 414.539062 235.738281 L 414.851562 238.164062 L 415.160156 240.1875 L 415.46875 241.847656 L 415.777344 243.171875 L 416.085938 244.207031 L 416.394531 244.984375 L 416.703125 245.539062 L 417.011719 245.914062 L 417.324219 246.140625 L 417.632812 246.253906 L 417.941406 246.296875 L 418.25 246.304688 L 433.390625 246.304688 "/>
    <path style="fill:none;stroke-width:1.066978;stroke-linecap:butt;stroke-linejoin:round;stroke:rgb(94.117647%,40%,91.764706%);stroke-opacity:1;stroke-miterlimit:10;" d="M 186.472656 246.304688 L 399.707031 246.304688 L 400.015625 246.296875 L 400.324219 246.253906 L 400.632812 246.140625 L 400.945312 245.914062 L 401.253906 245.539062 L 401.5625 244.984375 L 401.871094 244.207031 L 402.179688 243.171875 L 402.488281 241.847656 L 402.796875 240.1875 L 403.105469 238.164062 L 403.414062 235.738281 L 403.726562 232.867188 L 404.035156 229.523438 L 404.34375 225.664062 L 404.652344 221.253906 L 404.960938 216.257812 L 405.269531 210.640625 L 405.578125 204.359375 L 405.886719 197.382812 L 406.195312 189.695312 L 406.507812 181.382812 L 406.816406 172.558594 L 407.125 163.332031 L 407.433594 153.808594 L 407.742188 144.105469 L 408.050781 134.324219 L 408.359375 124.582031 L 408.667969 114.988281 L 408.976562 105.648438 L 409.289062 96.679688 L 409.597656 88.183594 L 409.90625 80.277344 L 410.214844 73.066406 L 410.523438 66.664062 L 410.832031 61.179688 L 411.140625 56.71875 L 411.449219 53.398438 L 411.757812 51.328125 L 412.070312 50.609375 L 412.378906 51.328125 L 412.6875 53.398438 L 412.996094 56.71875 L 413.304688 61.179688 L 413.613281 66.664062 L 413.921875 73.066406 L 414.230469 80.277344 L 414.539062 88.183594 L 414.851562 96.679688 L 415.160156 105.648438 L 415.46875 114.988281 L 415.777344 124.582031 L 416.085938 134.324219 L 416.394531 144.105469 L 416.703125 153.808594 L 417.011719 163.332031 L 417.324219 172.558594 L 417.632812 181.382812 L 417.941406 189.695312 L 418.25 197.382812 L 418.558594 204.359375 L 418.867188 210.640625 L 419.175781 216.257812 L 419.484375 221.253906 L 419.792969 225.664062 L 420.105469 229.523438 L 420.414062 232.867188 L 420.722656 235.738281 L 421.03125 238.164062 L 421.339844 240.1875 L 421.648438 241.847656 L 421.957031 243.171875 L 422.265625 244.207031 L 422.574219 244.984375 L 422.886719 245.539062 L 423.195312 245.914062 L 423.503906 246.140625 L 423.8125 246.253906 L 424.121094 246.296875 L 424.429688 246.304688 L 433.390625 246.304688 "/>
    <path style="fill:none;stroke-width:1.066978;stroke-linecap:butt;stroke-linejoin:round;stroke:rgb(96.862745%,38.823529%,87.843137%);stroke-opacity:1;stroke-miterlimit:10;" d="M 186.472656 246.304688 L 405.886719 246.304688 L 406.195312 246.296875 L 406.507812 246.253906 L 406.816406 246.140625 L 407.125 245.914062 L 407.433594 245.539062 L 407.742188 244.984375 L 408.050781 244.207031 L 408.359375 243.171875 L 408.667969 241.847656 L 408.976562 240.1875 L 409.289062 238.164062 L 409.597656 235.738281 L 409.90625 232.867188 L 410.214844 229.523438 L 410.523438 225.664062 L 410.832031 221.253906 L 411.140625 216.257812 L 411.449219 210.640625 L 411.757812 204.359375 L 412.070312 197.382812 L 412.378906 189.695312 L 412.6875 181.382812 L 412.996094 172.558594 L 413.304688 163.332031 L 413.613281 153.808594 L 413.921875 144.105469 L 414.230469 134.324219 L 414.539062 124.582031 L 414.851562 114.988281 L 415.160156 105.648438 L 415.46875 96.679688 L 415.777344 88.183594 L 416.085938 80.277344 L 416.394531 73.066406 L 416.703125 66.664062 L 417.011719 61.179688 L 417.324219 56.71875 L 417.632812 53.398438 L 417.941406 51.328125 L 418.25 50.609375 L 418.558594 51.328125 L 418.867188 53.398438 L 419.175781 56.71875 L 419.484375 61.179688 L 419.792969 66.664062 L 420.105469 73.066406 L 420.414062 80.277344 L 420.722656 88.183594 L 421.03125 96.679688 L 421.339844 105.648438 L 421.648438 114.988281 L 421.957031 124.582031 L 422.265625 134.324219 L 422.574219 144.105469 L 422.886719 153.808594 L 423.195312 163.332031 L 423.503906 172.558594 L 423.8125 181.382812 L 424.121094 189.695312 L 424.429688 197.382812 L 424.738281 204.359375 L 425.046875 210.640625 L 425.355469 216.257812 L 425.667969 221.253906 L 425.976562 225.664062 L 426.285156 229.523438 L 426.59375 232.867188 L 426.902344 235.738281 L 427.210938 238.164062 L 427.519531 240.1875 L 427.828125 241.847656 L 428.136719 243.171875 L 428.449219 244.207031 L 428.757812 244.984375 L 429.066406 245.539062 L 429.375 245.914062 L 429.683594 246.140625 L 429.992188 246.253906 L 430.300781 246.296875 L 430.609375 246.304688 L 433.390625 246.304688 "/>
    <path style="fill:none;stroke-width:1.066978;stroke-linecap:butt;stroke-linejoin:round;stroke:rgb(98.823529%,38.039216%,83.529412%);stroke-opacity:1;stroke-miterlimit:10;" d="M 186.472656 246.304688 L 412.070312 246.304688 L 412.378906 246.296875 L 412.6875 246.253906 L 412.996094 246.140625 L 413.304688 245.914062 L 413.613281 245.539062 L 413.921875 244.984375 L 414.230469 244.207031 L 414.539062 243.171875 L 414.851562 241.847656 L 415.160156 240.1875 L 415.46875 238.164062 L 415.777344 235.738281 L 416.085938 232.867188 L 416.394531 229.523438 L 416.703125 225.664062 L 417.011719 221.253906 L 417.324219 216.257812 L 417.632812 210.640625 L 417.941406 204.359375 L 418.25 197.382812 L 418.558594 189.695312 L 418.867188 181.382812 L 419.175781 172.558594 L 419.484375 163.332031 L 419.792969 153.808594 L 420.105469 144.105469 L 420.414062 134.324219 L 420.722656 124.582031 L 421.03125 114.988281 L 421.339844 105.648438 L 421.648438 96.679688 L 421.957031 88.183594 L 422.265625 80.277344 L 422.574219 73.066406 L 422.886719 66.664062 L 423.195312 61.179688 L 423.503906 56.71875 L 423.8125 53.398438 L 424.121094 51.328125 L 424.429688 50.609375 L 424.738281 51.328125 L 425.046875 53.398438 L 425.355469 56.71875 L 425.667969 61.179688 L 425.976562 66.664062 L 426.285156 73.066406 L 426.59375 80.277344 L 426.902344 88.183594 L 427.210938 96.679688 L 427.519531 105.648438 L 427.828125 114.988281 L 428.136719 124.582031 L 428.449219 134.324219 L 428.757812 144.105469 L 429.066406 153.808594 L 429.375 163.332031 L 429.683594 172.558594 L 429.992188 181.382812 L 430.300781 189.695312 L 430.609375 197.382812 L 430.917969 204.359375 L 431.230469 210.640625 L 431.539062 216.257812 L 431.847656 221.253906 L 432.15625 225.664062 L 432.464844 229.523438 L 432.773438 232.867188 L 433.082031 235.738281 L 433.390625 238.164062 "/>
    <path style="fill:none;stroke-width:1.066978;stroke-linecap:butt;stroke-linejoin:round;stroke:rgb(100%,38.039216%,78.823529%);stroke-opacity:1;stroke-miterlimit:10;" d="M 186.472656 246.304688 L 418.25 246.304688 L 418.558594 246.296875 L 418.867188 246.253906 L 419.175781 246.140625 L 419.484375 245.914062 L 419.792969 245.539062 L 420.105469 244.984375 L 420.414062 244.207031 L 420.722656 243.171875 L 421.03125 241.847656 L 421.339844 240.1875 L 421.648438 238.164062 L 421.957031 235.738281 L 422.265625 232.867188 L 422.574219 229.523438 L 422.886719 225.664062 L 423.195312 221.253906 L 423.503906 216.257812 L 423.8125 210.640625 L 424.121094 204.359375 L 424.429688 197.382812 L 424.738281 189.695312 L 425.046875 181.382812 L 425.355469 172.558594 L 425.667969 163.332031 L 425.976562 153.808594 L 426.285156 144.105469 L 426.59375 134.324219 L 426.902344 124.582031 L 427.210938 114.988281 L 427.519531 105.648438 L 427.828125 96.679688 L 428.136719 88.183594 L 428.449219 80.277344 L 428.757812 73.066406 L 429.066406 66.664062 L 429.375 61.179688 L 429.683594 56.71875 L 429.992188 53.398438 L 430.300781 51.328125 L 430.609375 50.609375 L 430.917969 51.328125 L 431.230469 53.398438 L 431.539062 56.71875 L 431.847656 61.179688 L 432.15625 66.664062 L 432.464844 73.066406 L 432.773438 80.277344 L 433.082031 88.183594 L 433.390625 96.679688 "/>
    <path style="fill:none;stroke-width:1.066978;stroke-linecap:butt;stroke-linejoin:round;stroke:rgb(100%,38.431373%,73.72549%);stroke-opacity:1;stroke-miterlimit:10;" d="M 186.472656 246.304688 L 424.429688 246.304688 L 424.738281 246.296875 L 425.046875 246.253906 L 425.355469 246.140625 L 425.667969 245.914062 L 425.976562 245.539062 L 426.285156 244.984375 L 426.59375 244.207031 L 426.902344 243.171875 L 427.210938 241.847656 L 427.519531 240.1875 L 427.828125 238.164062 L 428.136719 235.738281 L 428.449219 232.867188 L 428.757812 229.523438 L 429.066406 225.664062 L 429.375 221.253906 L 429.683594 216.257812 L 429.992188 210.640625 L 430.300781 204.359375 L 430.609375 197.382812 L 430.917969 189.695312 L 431.230469 181.382812 L 431.539062 172.558594 L 431.847656 163.332031 L 432.15625 153.808594 L 432.464844 144.105469 L 432.773438 134.324219 L 433.082031 124.582031 L 433.390625 114.988281 "/>
    <path style="fill:none;stroke-width:1.066978;stroke-linecap:butt;stroke-linejoin:round;stroke:rgb(100%,39.607843%,68.235294%);stroke-opacity:1;stroke-miterlimit:10;" d="M 186.472656 246.304688 L 430.609375 246.304688 L 430.917969 246.296875 L 431.230469 246.253906 L 431.539062 246.140625 L 431.847656 245.914062 L 432.15625 245.539062 L 432.464844 244.984375 L 432.773438 244.207031 L 433.082031 243.171875 L 433.390625 241.847656 "/>
    <path style="fill:none;stroke-width:1.066978;stroke-linecap:butt;stroke-linejoin:round;stroke:rgb(100%,40.784314%,62.352941%);stroke-opacity:1;stroke-miterlimit:10;" d="M 186.472656 246.304688 L 433.390625 246.304688 "/>
    <path style="fill:none;stroke-width:1.066978;stroke-linecap:butt;stroke-linejoin:round;stroke:rgb(100%,42.352941%,56.862745%);stroke-opacity:1;stroke-miterlimit:10;" d="M 186.472656 246.304688 L 433.390625 246.304688 "/>
    <path style="fill:none;stroke-width:1.066978;stroke-linecap:butt;stroke-linejoin:round;stroke:rgb(100%,42.352941%,56.862745%);stroke-opacity:1;stroke-miterlimit:10;" d="M 186.472656 246.304688 L 433.390625 246.304688 "/>
    <g clip-path="url(#clip1)" clip-rule="nonzero">
      <path style="fill:none;stroke-width:1.066978;stroke-linecap:butt;stroke-linejoin:round;stroke:rgb(0%,0%,0%);stroke-opacity:1;stroke-dasharray:4.267913,4.267913;stroke-miterlimit:10;" d="M 186.472656 256.089844 L 186.472656 40.828125 "/>
    </g>
    <g clip-path="url(#clip2)" clip-rule="nonzero">
      <path style="fill:none;stroke-width:1.066978;stroke-linecap:butt;stroke-linejoin:round;stroke:rgb(0%,0%,0%);stroke-opacity:1;stroke-dasharray:4.267913,4.267913;stroke-miterlimit:10;" d="M 433.699219 256.089844 L 433.699219 40.828125 "/>
    </g>
  </g>
</svg>
